<svg width="42" height="42" viewBox="0 0 42 42" fill="none" xmlns="http://www.w3.org/2000/svg">
<path d="M36.2103 5.02979H6.75117C6.04271 5.02979 5.47034 5.60216 5.47034 6.31062V35.7697C5.47034 36.4782 6.04271 37.0506 6.75117 37.0506H36.2103C36.9187 37.0506 37.4911 36.4782 37.4911 35.7697V6.31062C37.4911 5.60216 36.9187 5.02979 36.2103 5.02979ZM32.5119 14.3758H29.9542C27.9489 14.3758 27.5607 15.3285 27.5607 16.7294V19.8154H32.3478L31.7234 24.6465H27.5607V37.0506H22.5694V24.6505H18.3947V19.8154H22.5694V16.2531C22.5694 12.1184 25.0951 9.86492 28.7855 9.86492C30.5546 9.86492 32.0716 9.99701 32.5159 10.057V14.3758H32.5119Z" fill="white"/>
</svg>
