<svg width="41" height="42" viewBox="0 0 41 42" fill="none" xmlns="http://www.w3.org/2000/svg">
<path d="M37.145 10.7253C35.9202 11.2537 34.5873 11.6339 33.2144 11.782C34.6398 10.9352 35.7072 9.5974 36.2164 8.01958C34.8788 8.81525 33.4136 9.37319 31.8855 9.66865C31.2469 8.98591 30.4745 8.44201 29.6165 8.07084C28.7585 7.69967 27.8332 7.50918 26.8983 7.51125C23.1159 7.51125 20.0739 10.5772 20.0739 14.3397C20.0739 14.868 20.1379 15.3964 20.242 15.9047C14.5783 15.6085 9.52705 12.9027 6.16887 8.76006C5.55697 9.8052 5.23632 10.9952 5.24026 12.2063C5.24026 14.5758 6.44505 16.6652 8.28224 17.894C7.19955 17.8513 6.14222 17.5538 5.19624 17.0254V17.1095C5.19624 20.4276 7.54176 23.1774 10.6678 23.8098C10.0808 23.9623 9.47704 24.0403 8.87062 24.042C8.42633 24.042 8.00606 23.9979 7.58178 23.9379C8.44634 26.6437 10.964 28.6089 13.9619 28.673C11.6164 30.5102 8.67849 31.5909 5.48843 31.5909C4.91605 31.5909 4.38771 31.5709 3.83936 31.5068C6.86532 33.4481 10.4556 34.5688 14.3222 34.5688C26.8743 34.5688 33.7428 24.1701 33.7428 15.1442C33.7428 14.848 33.7428 14.5518 33.7227 14.2556C35.0516 13.283 36.2164 12.0782 37.145 10.7253Z" fill="black"/>
</svg>
