<svg width="42" height="46" viewBox="0 0 42 46" fill="none" xmlns="http://www.w3.org/2000/svg">
<g filter="url(#filter0_d)">
<path d="M36.1981 5.02979H6.73896C6.0305 5.02979 5.45813 5.60216 5.45813 6.31062V35.7697C5.45813 36.4782 6.0305 37.0506 6.73896 37.0506H36.1981C36.9065 37.0506 37.4789 36.4782 37.4789 35.7697V6.31062C37.4789 5.60216 36.9065 5.02979 36.1981 5.02979ZM14.9563 32.3155H10.2052V17.0336H14.9563V32.3155ZM12.5828 14.9442C12.0381 14.9442 11.5057 14.7827 11.0528 14.4801C10.6 14.1775 10.247 13.7474 10.0386 13.2443C9.83016 12.7411 9.77562 12.1874 9.88188 11.6532C9.98813 11.119 10.2504 10.6283 10.6355 10.2432C11.0207 9.85809 11.5113 9.59581 12.0455 9.48956C12.5797 9.3833 13.1334 9.43784 13.6366 9.64626C14.1398 9.85469 14.5699 10.2077 14.8724 10.6605C15.175 11.1134 15.3365 11.6458 15.3365 12.1904C15.3325 13.7114 14.0997 14.9442 12.5828 14.9442ZM32.7438 32.3155H27.9968V24.8827C27.9968 23.1095 27.9647 20.832 25.5272 20.832C23.0576 20.832 22.6773 22.7613 22.6773 24.7546V32.3155H17.9342V17.0336H22.4892V19.1229H22.5532C23.1856 17.9222 24.7346 16.6533 27.0481 16.6533C31.8593 16.6533 32.7438 19.8194 32.7438 23.9341V32.3155Z" fill="white"/>
</g>
<defs>
<filter id="filter0_d" x="-3.02686" y="0.546875" width="48.9866" height="48.9866" filterUnits="userSpaceOnUse" color-interpolation-filters="sRGB">
<feFlood flood-opacity="0" result="BackgroundImageFix"/>
<feColorMatrix in="SourceAlpha" type="matrix" values="0 0 0 0 0 0 0 0 0 0 0 0 0 0 0 0 0 0 127 0"/>
<feOffset dy="4"/>
<feGaussianBlur stdDeviation="2"/>
<feColorMatrix type="matrix" values="0 0 0 0 0 0 0 0 0 0 0 0 0 0 0 0 0 0 0.25 0"/>
<feBlend mode="normal" in2="BackgroundImageFix" result="effect1_dropShadow"/>
<feBlend mode="normal" in="SourceGraphic" in2="effect1_dropShadow" result="shape"/>
</filter>
</defs>
</svg>
