<svg width="46" height="47" viewBox="0 0 46 47" fill="none" xmlns="http://www.w3.org/2000/svg">
<path d="M23 27.3802C27.2282 27.3802 30.6667 23.9417 30.6667 19.7135C30.6667 15.4854 27.2282 12.0469 23 12.0469C18.7719 12.0469 15.3334 15.4854 15.3334 19.7135C15.3334 23.9417 18.7719 27.3802 23 27.3802ZM23 15.8802C25.1141 15.8802 26.8334 17.5995 26.8334 19.7135C26.8334 21.8276 25.1141 23.5469 23 23.5469C20.886 23.5469 19.1667 21.8276 19.1667 19.7135C19.1667 17.5995 20.886 15.8802 23 15.8802Z" fill="black"/>
<path d="M21.8885 42.3572C22.2129 42.5889 22.6015 42.7134 23.0001 42.7134C23.3987 42.7134 23.7874 42.5889 24.1118 42.3572C24.6945 41.9451 38.389 32.057 38.3335 19.7137C38.3335 11.2593 31.4545 4.38037 23.0001 4.38037C14.5457 4.38037 7.66679 11.2593 7.66679 19.7041C7.61121 32.057 21.3058 41.9451 21.8885 42.3572ZM23.0001 8.2137C29.3424 8.2137 34.5001 13.3715 34.5001 19.7233C34.5404 28.2295 26.0898 35.8674 23.0001 38.3725C19.9124 35.8655 11.4599 28.2256 11.5001 19.7137C11.5001 13.3715 16.6579 8.2137 23.0001 8.2137Z" fill="white"/>
</svg>
