<svg width="61" height="61" viewBox="0 0 61 61" fill="none" xmlns="http://www.w3.org/2000/svg">
<g clip-path="url(#clip0)">
<path d="M13.6568 0.273438H47.3768C54.634 0.273438 60.5168 6.15625 60.5168 13.4134V47.1334C60.5168 54.3906 54.634 60.2734 47.3768 60.2734H13.6568C6.39966 60.2734 0.516846 54.3906 0.516846 47.1334V13.4134C0.516846 6.15625 6.39966 0.273438 13.6568 0.273438Z" fill="url(#paint0_linear)"/>
<path d="M19.7454 43.8227L19.7511 43.8245L17.6996 47.3777C16.9508 48.6747 15.2923 49.1191 13.9953 48.3702C12.6985 47.6214 12.2539 45.963 13.0027 44.6659L14.514 42.0484L14.659 41.7972C14.918 41.425 15.5572 40.7824 16.8357 40.9033C16.8357 40.9033 19.8444 41.2298 20.0621 42.7935C20.0621 42.7935 20.0916 43.308 19.7454 43.8227ZM48.8415 34.7477H42.4444C42.0087 34.7184 41.8187 34.5627 41.7437 34.4723L41.739 34.4641L34.8912 22.6033L34.8823 22.6091L34.4717 22.0204C33.7986 20.991 32.7298 23.6235 32.7298 23.6235C31.4537 26.557 32.911 29.8919 33.4189 30.8999L42.9303 47.3741C43.6789 48.6709 45.3373 49.1156 46.6346 48.3665C47.9314 47.6177 48.376 45.9592 47.6269 44.6622L45.2487 40.5428C45.2026 40.443 45.1224 40.172 45.6101 40.1709H48.8415C50.3391 40.1709 51.5532 38.9568 51.5532 37.4591C51.5532 35.9615 50.3391 34.7477 48.8415 34.7477ZM36.4163 38.4339C36.4163 38.4339 36.7578 40.1709 35.4366 40.1709H11.7884C10.2908 40.1709 9.07669 38.9568 9.07669 37.4591C9.07669 35.9615 10.2908 34.7474 11.7884 34.7474H17.8681C18.8497 34.6907 19.0822 34.124 19.0822 34.124L19.0878 34.1268L27.0237 20.3812L27.0214 20.3807C27.166 20.1152 27.0455 19.8641 27.0247 19.8245L24.4037 15.2849C23.6548 13.9881 24.0992 12.3295 25.3962 11.5809C26.6933 10.832 28.3517 11.2762 29.1005 12.5732L30.316 14.6786L31.5294 12.577C32.2782 11.2802 33.9366 10.8355 35.2337 11.5846C36.5307 12.3334 36.9751 13.9916 36.2262 15.2887L25.1829 34.416C25.1347 34.5325 25.1199 34.7153 25.4792 34.7474H32.0801L32.0815 34.8119C32.0815 34.8119 35.8967 34.8712 36.4163 38.4339Z" fill="white"/>
</g>
<defs>
<linearGradient id="paint0_linear" x1="30.5168" y1="0.273438" x2="30.5168" y2="60.2734" gradientUnits="userSpaceOnUse">
<stop stop-color="#17C9FB"/>
<stop offset="1" stop-color="#1A74E8"/>
</linearGradient>
<clipPath id="clip0">
<rect width="60" height="60" fill="white" transform="translate(0.516846 0.273438)"/>
</clipPath>
</defs>
</svg>
