<svg width="213" height="132" viewBox="0 0 213 132" fill="none" xmlns="http://www.w3.org/2000/svg">
<path d="M201.553 120.017H11.699C11.2916 120.017 10.955 119.681 10.955 119.273V7.37688C10.955 3.85188 13.8246 1 17.3319 1H195.92C199.445 1 202.297 3.8696 202.297 7.37688V119.273C202.297 119.699 201.978 120.017 201.553 120.017ZM12.4429 118.547H200.809V7.37688C200.809 4.68442 198.613 2.48794 195.92 2.48794H17.3496C14.6572 2.48794 12.4607 4.68442 12.4607 7.37688V118.547H12.4429Z" fill="#232323" stroke="#232323" stroke-miterlimit="10"/>
<path d="M203.129 131H10.1402C8.08543 131 5.81809 130.185 4.04673 128.804C2.08053 127.28 1 125.332 1 123.312V119.291C1 118.884 1.33658 118.547 1.74399 118.547H211.526C211.933 118.547 212.27 118.884 212.27 119.291V123.312C212.27 125.332 211.189 127.28 209.223 128.804C207.452 130.167 205.167 131 203.129 131ZM2.48793 120.018V123.295C2.48793 126.642 6.70379 129.494 10.1579 129.494H203.129C206.584 129.494 210.799 126.625 210.799 123.295V120.018H2.48793Z" fill="#232323" stroke="#232323" stroke-miterlimit="10"/>
<path d="M211.526 124.038H1.74399C1.33658 124.038 1 123.702 1 123.294V119.274C1 118.866 1.33658 118.53 1.74399 118.53H211.526C211.933 118.53 212.27 118.866 212.27 119.274V123.294C212.27 123.72 211.933 124.038 211.526 124.038ZM2.48793 122.568H210.799V120.035H2.48793V122.568Z" fill="#232323" stroke="#232323" stroke-miterlimit="10"/>
<path d="M191.846 111.745H21.4237C21.0163 111.745 20.6798 111.409 20.6798 111.001V12.3721C20.6798 11.9647 21.0163 11.6282 21.4237 11.6282H191.846C192.253 11.6282 192.59 11.9647 192.59 12.3721V111.019C192.59 111.426 192.253 111.745 191.846 111.745ZM22.1677 110.275H191.102V13.1161H22.1677V110.275Z" fill="#232323" stroke="#232323" stroke-miterlimit="10"/>
</svg>
