<svg width="182" height="132" viewBox="0 0 182 132" fill="none" xmlns="http://www.w3.org/2000/svg">
<path d="M1.57441 96.3998H2.14882V5.97298C2.14882 4.02032 3.61986 2.41885 5.4972 2.18003C5.65131 2.16598 5.80542 2.15193 5.95953 2.15193H158.668C160.77 2.15193 162.479 3.86579 162.479 5.97298V93.7729V95.1636V96.3998H163.053C163.375 96.3998 163.628 96.6527 163.628 96.9758V5.97298C163.628 4.96153 163.319 4.00627 162.801 3.21958C161.904 1.88502 160.391 1 158.668 1H6.68805H5.95953C3.22758 1 1 3.23363 1 5.97298V96.9758C1 96.6527 1.25218 96.3998 1.57441 96.3998Z" fill="#232323" stroke="#232323" stroke-miterlimit="10"/>
<path d="M130.354 108.706C130.676 108.706 130.928 108.959 130.928 109.282C130.928 109.45 130.942 109.605 130.956 109.773H158.654C161.386 109.773 163.614 107.54 163.614 104.8V96.9898C163.614 96.6667 163.361 96.4138 163.039 96.4138H162.465H5.23101H2.14882H1.57441C1.25218 96.4138 1 96.6667 1 96.9898V104.8C1 107.54 3.22758 109.773 5.95953 109.773H62.826H64.339C64.339 109.577 64.339 109.394 64.339 109.197C64.339 108.874 64.5912 108.622 64.9135 108.622H62.854H5.95953C3.85803 108.622 2.14882 106.908 2.14882 104.8V97.5658H5.23101H162.465V104.8C162.465 105.124 162.423 105.419 162.353 105.714C161.946 107.371 160.447 108.607 158.668 108.607H99.7142C100.036 108.607 100.289 108.86 100.289 109.183C100.289 109.38 100.289 109.577 100.289 109.759H129.808C129.794 109.605 129.78 109.436 129.78 109.268C129.78 108.959 130.032 108.706 130.354 108.706Z" fill="#232323" stroke="#232323" stroke-miterlimit="10"/>
<path d="M10.3307 89.4042H154.283C154.605 89.4042 154.857 89.1513 154.857 88.8282V9.00761C154.857 8.7407 154.675 8.51593 154.423 8.44569C154.381 8.43164 154.325 8.43164 154.283 8.43164H13.3568H10.3307C10.0085 8.43164 9.75629 8.6845 9.75629 9.00761V88.8142C9.75629 89.1373 10.0225 89.4042 10.3307 89.4042ZM10.9051 9.59762H13.3568H153.709V85.7798V88.2523H10.9051V9.59762Z" fill="#232323" stroke="#232323" stroke-miterlimit="10"/>
<path d="M99.7142 108.608H96.9823H96.8982H64.9135C64.5912 108.608 64.3391 108.861 64.3391 109.184C64.3391 109.38 64.3391 109.577 64.3391 109.76C64.199 121.082 60.08 123.99 59.4216 124.384H61.2429C62.896 122.698 65.3898 118.68 65.4879 109.76H96.646H96.9963H99.1258C99.2239 118.68 101.718 122.698 103.371 124.384H105.192C104.52 123.976 100.415 121.054 100.275 109.76C100.275 109.563 100.275 109.38 100.275 109.184C100.289 108.861 100.022 108.608 99.7142 108.608Z" fill="#232323" stroke="#232323" stroke-miterlimit="10"/>
<path d="M101.199 124.384H65.2356H61.2428H59.4215H58.6369H50.7493C48.844 124.384 46.6584 125.718 46.126 127.558C46.042 127.839 45.9999 128.12 45.9999 128.415V130.424C45.9999 130.747 46.2521 131 46.5743 131H114.929H118.039C118.361 131 118.614 130.747 118.614 130.424V128.415C118.614 126.14 116.064 124.384 113.864 124.384H105.206H103.385H101.199ZM113.864 125.55C115.489 125.55 117.465 126.884 117.465 128.429V129.848H114.929H47.1628V128.429C47.1628 127.741 47.555 127.081 48.1435 126.575C48.858 125.957 49.8667 125.55 50.7633 125.55H59.5756H105.08H113.864Z" fill="#232323" stroke="#232323" stroke-miterlimit="10"/>
<path d="M151.257 126.364H151.831V124.159C151.831 123.105 152.448 122.108 153.358 121.363C154.395 120.492 155.81 119.93 157.071 119.93H165.841C165.519 119.93 165.267 119.677 165.267 119.354V118.778H157.071C156.693 118.778 156.314 118.82 155.922 118.891C154.829 119.101 153.723 119.593 152.812 120.31C151.439 121.377 150.682 122.754 150.682 124.173V126.954C150.668 126.631 150.935 126.364 151.257 126.364Z" fill="#232323" stroke="#232323" stroke-miterlimit="10"/>
<path d="M178.842 120.295C177.61 119.34 176.012 118.764 174.597 118.764H166.402V119.34C166.402 119.663 166.149 119.916 165.827 119.916H174.597C176.951 119.916 179.823 121.869 179.823 124.145V125.606V126.35H180.398C180.72 126.35 180.972 126.603 180.972 126.926V125.606V124.145C180.986 122.74 180.215 121.363 178.842 120.295Z" fill="#232323" stroke="#232323" stroke-miterlimit="10"/>
<path d="M180.398 126.364H179.823H151.831H151.257C150.935 126.364 150.682 126.617 150.682 126.94V127.91C150.682 129.651 152.63 131 154.297 131H177.385C179.053 131 181 129.651 181 127.91V126.94C180.986 126.631 180.72 126.364 180.398 126.364ZM179.823 127.91C179.823 128.935 178.45 129.848 177.371 129.848H154.283C153.204 129.848 151.831 128.935 151.831 127.91V127.516H179.823V127.91Z" fill="#232323" stroke="#232323" stroke-miterlimit="10"/>
<path d="M165.253 119.34C165.253 119.663 165.505 119.916 165.827 119.916C166.149 119.916 166.402 119.663 166.402 119.34V118.764V118.174V118.104C166.402 115.351 164.174 113.117 161.428 113.117H134.753C132.806 113.117 131.195 111.656 130.956 109.76C130.942 109.605 130.928 109.436 130.928 109.268C130.928 108.945 130.676 108.692 130.354 108.692C130.032 108.692 129.78 108.945 129.78 109.268C129.78 109.436 129.794 109.591 129.808 109.76C130.046 112.288 132.175 114.269 134.767 114.269H161.428C163.544 114.269 165.253 115.997 165.253 118.104V118.174V118.764V119.34Z" fill="#232323" stroke="#232323" stroke-miterlimit="10"/>
<path d="M77.3263 104.463H87.3154C88.5063 104.463 89.4729 103.494 89.4729 102.3C89.4729 101.106 88.5063 100.137 87.3154 100.137H77.3263C76.1355 100.137 75.1688 101.106 75.1688 102.3C75.1688 103.494 76.1355 104.463 77.3263 104.463ZM77.3263 101.303H87.3154C87.8618 101.303 88.3101 101.752 88.3101 102.3C88.3101 102.848 87.8618 103.298 87.3154 103.298H77.3263C76.7799 103.298 76.3316 102.848 76.3316 102.3C76.3176 101.752 76.7659 101.303 77.3263 101.303Z" fill="#232323" stroke="#232323" stroke-miterlimit="10"/>
</svg>
