<svg width="74" height="132" viewBox="0 0 74 132" fill="none" xmlns="http://www.w3.org/2000/svg">
<path d="M66.0314 131H7.61413C3.9722 131 1.02094 128.028 1.02094 124.407V7.59319C1.02094 3.95127 3.99313 1 7.61413 1H66.0314C69.6733 1 72.6246 3.9722 72.6246 7.59319V124.407C72.6246 128.049 69.6733 131 66.0314 131ZM7.61413 2.73728C4.93501 2.73728 2.75821 4.91408 2.75821 7.59319V124.407C2.75821 127.086 4.93501 129.263 7.61413 129.263H66.0314C68.7105 129.263 70.8873 127.086 70.8873 124.407V7.59319C70.8873 4.91408 68.7105 2.73728 66.0314 2.73728H7.61413Z" fill="#232323" stroke="#232323" stroke-miterlimit="10"/>
<path d="M41.3542 125.349H32.2703C30.7633 125.349 29.5284 124.114 29.5284 122.607C29.5284 121.1 30.7633 119.865 32.2703 119.865H41.3542C42.8612 119.865 44.0961 121.1 44.0961 122.607C44.0961 124.135 42.8612 125.349 41.3542 125.349ZM32.2703 121.623C31.7262 121.623 31.2866 122.063 31.2866 122.607C31.2866 123.151 31.7262 123.591 32.2703 123.591H41.3542C41.8984 123.591 42.338 123.151 42.338 122.607C42.338 122.063 41.8984 121.623 41.3542 121.623H32.2703Z" fill="#232323" stroke="#232323" stroke-miterlimit="10"/>
<path d="M71.7664 117.249H1.87905C1.39765 117.249 1 116.851 1 116.37V12.5121C1 12.0307 1.39765 11.6331 1.87905 11.6331H71.7664C72.2478 11.6331 72.6454 12.0307 72.6454 12.5121V116.391C72.6245 116.851 72.2478 117.249 71.7664 117.249ZM2.75816 115.491H70.8873V13.3703H2.75816V115.491Z" fill="#232323" stroke="#232323" stroke-miterlimit="10"/>
</svg>
