<svg width="74" height="130" viewBox="0 0 74 130" fill="none" xmlns="http://www.w3.org/2000/svg">
<path d="M64.0986 32.8756C64.0685 32.8756 64.0685 32.8756 64.0986 32.8756L33.9876 32.1845L4.32748 31.9741C3.75651 31.9741 3.27572 31.6435 3.03531 31.1326C2.79491 30.6217 2.91516 30.0209 3.27577 29.6002L11.0889 20.7953C11.119 20.7652 16.2877 14.6349 16.3177 7.45272L16.3478 1.41248C16.3478 0.631162 16.9788 0 17.7902 0L50.6357 0.240458C51.417 0.240458 52.0482 0.871466 52.0482 1.68284L52.0181 7.72308C51.958 14.9052 57.0366 21.0958 57.0666 21.1559L65.1503 30.5016C65.5109 30.9224 65.6011 31.5234 65.3607 32.0343C65.1503 32.5451 64.6395 32.8756 64.0986 32.8756ZM7.48277 29.1493L34.0177 29.3296L60.9433 29.9307L54.9331 22.9589C54.6927 22.6583 49.1332 15.8968 49.1933 7.66292L49.2234 3.06524L19.2027 2.85486L19.1726 7.45272C19.1125 15.6866 13.463 22.3579 13.2226 22.6283L7.48277 29.1493Z" fill="#232323"/>
<path d="M50.125 130L17.2795 129.759C16.4982 129.759 15.8672 129.128 15.8672 128.317L15.8971 122.277C15.9572 115.095 10.8786 108.904 10.8486 108.844L2.7649 99.4982C2.40429 99.0775 2.31411 98.4766 2.55452 97.9657C2.79493 97.4549 3.30595 97.1543 3.84687 97.1543C3.84687 97.1543 3.84671 97.1543 3.87676 97.1543L33.9577 97.8454L63.6178 98.0558C64.1887 98.0558 64.6695 98.3864 64.9099 98.8973C65.1504 99.4082 65.0303 100.009 64.6697 100.43L56.8563 109.235C56.8263 109.265 51.6576 115.395 51.6275 122.577L51.5975 128.617C51.5674 129.369 50.9063 130 50.125 130ZM18.7219 126.935L48.7428 127.145L48.7727 122.547C48.8328 114.313 54.4825 107.642 54.7229 107.372L60.4625 100.881L33.9276 100.7L7.00216 100.099L13.0123 107.071C13.2527 107.372 18.812 114.133 18.7519 122.337L18.7219 126.935Z" fill="#232323"/>
<path d="M61.9349 100.43L5.49962 100.009C2.43444 99.9792 -0.0297789 97.4851 0.000271953 94.4199L0.451107 34.6488C0.481158 31.5836 2.97533 29.1194 6.04051 29.1494L62.4758 29.5702C65.541 29.6002 68.0052 32.0944 67.9752 35.1596L67.5245 94.9307C67.4945 97.9959 65.0001 100.46 61.9349 100.43ZM5.98035 31.9742C4.47781 31.9742 3.24581 33.1763 3.24581 34.6789L2.79498 94.4498C2.79498 95.9523 3.99708 97.1845 5.49962 97.1845L61.9349 97.6053C63.4375 97.6053 64.6697 96.4032 64.6697 94.9006L65.1203 35.1295C65.1203 33.627 63.9184 32.395 62.4159 32.395L5.98035 31.9742Z" fill="#232323"/>
<path d="M60.252 94.2391L7.24253 93.8486C6.46121 93.8486 5.83005 93.2174 5.83005 92.406L6.2508 36.7521C6.2508 35.9708 6.88181 35.3396 7.69318 35.3396L60.7028 35.7303C61.4842 35.7303 62.1151 36.3613 62.1151 37.1727L61.6946 92.8268C61.6946 93.6081 61.0333 94.2391 60.252 94.2391ZM8.68491 91.0238L58.8698 91.3844L59.2605 38.5551L9.07559 38.1945L8.68491 91.0238Z" fill="#232323"/>
<path d="M72.2723 71.4609L66.2622 71.4308C65.4809 71.4308 64.8499 70.7998 64.8499 69.9884L64.9099 60.0416C64.9099 59.2603 65.541 58.6292 66.3524 58.6292L72.3626 58.6592C73.1439 58.6592 73.7749 59.2902 73.7749 60.1016L73.7149 70.0484C73.7149 70.8297 73.0837 71.4609 72.2723 71.4609ZM67.7047 68.606L70.8901 68.6361L70.9501 61.5141L67.7647 61.484L67.7047 68.606Z" fill="#232323"/>
</svg>
