<svg width="102" height="132" viewBox="0 0 102 132" fill="none" xmlns="http://www.w3.org/2000/svg">
<path d="M95.4313 131H6.28299C3.37124 131 1 128.629 1 125.717V6.283C1 3.37125 3.37124 1 6.28299 1H95.4313C98.3431 1 100.714 3.37125 100.714 6.283V125.717C100.697 128.629 98.3431 131 95.4313 131ZM6.28299 2.34254C4.10354 2.34254 2.34258 4.10354 2.34258 6.283V125.717C2.34258 127.896 4.10354 129.657 6.28299 129.657H95.4313C97.6108 129.657 99.3718 127.896 99.3718 125.717V6.283C99.3718 4.10354 97.6108 2.34254 95.4313 2.34254H6.28299Z" fill="#232323" stroke="#232323" stroke-miterlimit="10"/>
<path d="M54.51 125.42H47.2044C46.0014 125.42 45.0424 124.444 45.0424 123.258C45.0424 122.055 46.0188 121.096 47.2044 121.096H54.51C55.713 121.096 56.672 122.073 56.672 123.258C56.672 124.462 55.6956 125.42 54.51 125.42ZM47.2044 122.422C46.7511 122.422 46.3675 122.788 46.3675 123.258C46.3675 123.712 46.7337 124.095 47.2044 124.095H54.51C54.9633 124.095 55.3469 123.729 55.3469 123.258C55.3469 122.805 54.9807 122.422 54.51 122.422H47.2044Z" fill="#232323" stroke="#232323" stroke-miterlimit="10"/>
<path d="M95.3965 117.331H6.3179C5.95175 117.331 5.65533 117.034 5.65533 116.668V8.98555C5.65533 8.61941 5.95175 8.323 6.3179 8.323H95.3965C95.7626 8.323 96.0591 8.61941 96.0591 8.98555V116.651C96.0591 117.017 95.7626 117.331 95.3965 117.331ZM6.98046 115.988H94.7165V9.64811H6.98046V115.988Z" fill="#232323" stroke="#232323" stroke-miterlimit="10"/>
</svg>
