<svg width="150" height="40" viewBox="0 0 150 40" fill="none" xmlns="http://www.w3.org/2000/svg">
<path fill-rule="evenodd" clip-rule="evenodd" d="M19.7979 21.5092L25.2211 16.0209C26.6528 14.5618 27.4562 12.589 27.4562 10.5327C27.4562 8.47643 26.6528 6.50359 25.2211 5.04444C23.7793 3.59561 21.8298 2.78253 19.7979 2.78253C17.766 2.78253 15.8166 3.59561 14.3747 5.04444C12.9431 6.50359 12.1396 8.47643 12.1396 10.5327C12.1396 12.589 12.9431 14.5618 14.3747 16.0209L19.7979 21.5092ZM19.7979 40.0001H8.19909C13.2756 37.2682 16.9072 33.2171 18.8447 27.6199L15.43 31.0754C11.9106 34.6371 6.15514 34.6371 2.63809 31.077C-0.879364 27.5174 -0.879364 21.693 2.63809 18.1333C4.813 15.9327 7.84317 15.0932 10.6725 15.6128C9.59154 13.6106 9.17878 11.3085 9.4957 9.04956C9.81262 6.79065 10.8423 4.69582 12.4312 3.07721C14.3884 1.10656 17.037 0.000305176 19.7979 0.000305176C22.5588 0.000305176 25.2075 1.10656 27.1647 3.07721C28.7539 4.69586 29.7838 6.79089 30.1008 9.05007C30.4178 11.3092 30.005 13.6116 28.9238 15.614C31.7515 15.0932 34.7825 15.9327 36.9582 18.1345C40.4752 21.6942 40.4752 27.5186 36.9582 31.0783C33.4407 34.6379 27.6853 34.6379 24.1678 31.0783L20.7532 27.6227C22.6907 33.2199 26.3219 37.271 31.3988 40.003L19.7979 40.0001Z" fill="white"/>
<path fill-rule="evenodd" clip-rule="evenodd" d="M17.7464 7.43274C18.3629 7.43266 18.9656 7.6176 19.4782 7.96417C19.9908 8.31074 20.3904 8.80337 20.6264 9.37977C20.8623 9.95616 20.9241 10.5904 20.8038 11.2023C20.6836 11.8143 20.3867 12.3763 19.9508 12.8175C19.5148 13.2587 18.9594 13.5591 18.3547 13.6808C17.7501 13.8025 17.1233 13.74 16.5538 13.5012C15.9842 13.2624 15.4974 12.858 15.155 12.3393C14.8125 11.8205 14.6297 11.2106 14.6298 10.5867C14.63 9.75025 14.9585 8.94816 15.5429 8.35674C16.1273 7.76531 16.9199 7.43295 17.7464 7.43274Z" fill="white"/>
<path d="M56.3937 13.9357C57.754 13.9357 58.8766 14.1017 59.7618 14.4337C60.6469 14.7657 61.3046 15.2671 61.735 15.9379C62.1656 16.609 62.381 17.4563 62.381 18.48C62.381 19.1714 62.2511 19.7766 61.9913 20.2956C61.7421 20.8011 61.3932 21.2495 60.9661 21.6132C60.5496 21.9684 60.0876 22.265 59.5926 22.495L64.0011 29.104H60.474L56.8963 23.2836H55.2046V29.104H52.0262V13.9357H56.3937ZM56.1684 16.5709H55.2042V20.6692H56.2294C57.2819 20.6692 58.0354 20.491 58.4899 20.1346C58.9444 19.7782 59.172 19.2543 59.1728 18.5629C59.1728 17.8434 58.9286 17.3315 58.4401 17.0274C57.9516 16.7234 57.1944 16.5712 56.1684 16.5709Z" fill="white"/>
<path d="M81.8857 21.4989C81.8857 22.6681 81.7422 23.7316 81.4551 24.6894C81.168 25.6472 80.7322 26.4721 80.1479 27.164C79.5635 27.8557 78.8237 28.3865 77.9284 28.7564C77.0331 29.1264 75.9736 29.3114 74.75 29.3114C73.5266 29.3114 72.4673 29.1264 71.572 28.7564C70.6767 28.3865 69.9368 27.8557 69.3525 27.164C68.7678 26.4721 68.3321 25.6455 68.0453 24.6842C67.7584 23.7228 67.6149 22.6542 67.6146 21.4782C67.6146 19.9082 67.869 18.5404 68.3779 17.375C68.8867 16.2096 69.671 15.3052 70.7308 14.6618C71.79 14.0187 73.1364 13.6971 74.77 13.6971C76.3965 13.6971 77.7345 14.0187 78.784 14.6618C79.8336 15.3049 80.6127 16.211 81.1212 17.3799C81.6309 18.5491 81.8857 19.9221 81.8857 21.4989ZM70.9465 21.4989C70.9465 22.5559 71.0781 23.4673 71.3414 24.2329C71.6046 24.9985 72.0164 25.5864 72.5767 25.9965C73.1369 26.4081 73.8614 26.614 74.75 26.614C75.6522 26.614 76.3836 26.4081 76.9442 25.9965C77.5047 25.5848 77.9131 24.9969 78.1694 24.2329C78.4257 23.4686 78.5538 22.5573 78.5538 21.4989C78.5538 19.908 78.2592 18.6562 77.6701 17.7433C77.0809 16.8305 76.1137 16.374 74.7684 16.3737C73.8731 16.3737 73.1436 16.5794 72.5799 16.9908C72.0161 17.4023 71.6026 17.9902 71.3394 18.7548C71.0774 19.5191 70.9465 20.4338 70.9465 21.4989Z" fill="white"/>
<path d="M99.5863 13.9357V23.7503C99.5863 24.7946 99.3586 25.7371 98.9033 26.5778C98.4481 27.4185 97.7611 28.0842 96.8425 28.5747C95.9236 29.0658 94.7671 29.3114 93.3729 29.3114C91.3911 29.3114 89.8806 28.7995 88.8415 27.7759C87.8024 26.7522 87.2829 25.3971 87.2832 23.7105V13.9357H90.4512V23.2214C90.4512 24.473 90.704 25.3514 91.2096 25.8566C91.7152 26.3618 92.4636 26.6143 93.4548 26.614C94.1511 26.614 94.7168 26.493 95.1517 26.251C95.5866 26.0089 95.9061 25.6353 96.1102 25.1301C96.3151 24.6258 96.4176 23.9826 96.4179 23.2007V13.9357H99.5863Z" fill="white"/>
<path d="M110.017 13.9357C111.377 13.9357 112.5 14.1017 113.385 14.4337C114.27 14.7657 114.928 15.2671 115.359 15.9379C115.789 16.609 116.004 17.4563 116.004 18.48C116.004 19.1714 115.874 19.7766 115.615 20.2956C115.365 20.8009 115.017 21.2493 114.59 21.6132C114.173 21.9683 113.711 22.2649 113.216 22.495L117.623 29.104H114.097L110.519 23.2836H108.827V29.104H105.649V13.9357H110.017ZM109.79 16.5709H108.826V20.6692H109.851C110.903 20.6692 111.657 20.491 112.111 20.1346C112.566 19.7782 112.794 19.2543 112.794 18.5629C112.794 17.8434 112.55 17.3315 112.062 17.0274C111.573 16.7234 110.816 16.5712 109.79 16.5709Z" fill="white"/>
<path d="M131.081 29.104L129.996 25.4936H124.533L123.448 29.104H120.018L125.308 13.8731H129.193L134.504 29.104H131.081ZM129.233 22.7958L128.148 19.2699C128.08 19.0349 127.99 18.7323 127.877 18.3621C127.764 17.9919 127.651 17.6149 127.539 17.2311C127.426 16.8473 127.335 16.5137 127.267 16.2302C127.198 16.514 127.105 16.865 126.986 17.2831C126.866 17.7013 126.752 18.0973 126.642 18.471C126.533 18.8448 126.454 19.1111 126.407 19.2699L125.33 22.7974L129.233 22.7958Z" fill="white"/>
<path d="M143.449 20.1814L146.576 13.9357H150.002L145.03 23.2007V29.104H141.872V23.3044L136.898 13.9357H140.342L143.449 20.1814Z" fill="white"/>
</svg>
