<svg width="16" height="16" viewBox="0 0 16 16" fill="none" xmlns="http://www.w3.org/2000/svg">
<path d="M15.3667 6.93326L2.46667 0.48326C2.29264 0.402631 2.10121 0.36681 1.9098 0.379056C1.7184 0.391302 1.53309 0.451227 1.37076 0.553376C1.20842 0.655525 1.07422 0.796653 0.980353 0.963915C0.886489 1.13118 0.83595 1.31926 0.833337 1.51104V14.4055C0.831712 14.6023 0.880898 14.7963 0.976142 14.9686C1.07139 15.1409 1.20947 15.2857 1.37704 15.389C1.54461 15.4924 1.736 15.5507 1.93272 15.5585C2.12944 15.5662 2.32483 15.5231 2.5 15.4333L15.3667 8.98326C15.5573 8.88759 15.7175 8.7408 15.8295 8.5593C15.9415 8.3778 16.0008 8.16874 16.0008 7.95548C16.0008 7.74222 15.9415 7.53316 15.8295 7.35167C15.7175 7.17017 15.5573 7.02338 15.3667 6.9277V6.93326Z" fill="white"/>
</svg>
