<svg width="29" height="31" viewBox="0 0 29 31" fill="none" xmlns="http://www.w3.org/2000/svg">
<path d="M10.15 2.05C10.15 1.50631 10.3682 0.984881 10.7567 0.600431C11.1452 0.215982 11.6721 0 12.2214 0C12.7708 0 13.2977 0.215982 13.6861 0.600431C14.0746 0.984881 14.2929 1.50631 14.2929 2.05V11.2135L16.7993 11.48L27.0321 15.9695C28.13 16.4615 28.7929 17.548 28.7929 18.737V27.675C28.7307 29.356 27.3843 30.6885 25.6857 30.75H12.2214C11.4343 30.75 10.6886 30.4425 10.15 29.8685L0 21.2585L1.53286 19.68C1.92643 19.2495 2.48571 19.024 3.06571 19.024H3.52143L10.15 22.55V2.05Z" fill="#C4C4C4"/>
</svg>
