<svg width="29" height="41" viewBox="0 0 29 41" fill="none" xmlns="http://www.w3.org/2000/svg">
<path d="M10.3571 12.3C10.3571 11.7563 10.5754 11.2349 10.9639 10.8504C11.3523 10.466 11.8792 10.25 12.4286 10.25C12.9779 10.25 13.5048 10.466 13.8933 10.8504C14.2818 11.2349 14.5 11.7563 14.5 12.3V21.4635L17.0064 21.73L27.2393 26.2195C28.3371 26.7115 29 27.798 29 28.987V37.925C28.9379 39.606 27.5914 40.9385 25.8929 41H12.4286C11.6414 41 10.8957 40.6925 10.3571 40.1185L0.207143 31.5085L1.74 29.93C2.13357 29.4995 2.69286 29.274 3.27286 29.274H3.72857L10.3571 32.8V12.3ZM12.4286 4.1C14.6261 4.1 16.7336 4.96393 18.2875 6.50172C19.8413 8.03952 20.7143 10.1252 20.7143 12.3C20.7143 15.375 19.0571 17.9785 16.5714 19.393V16.892C17.835 15.7645 18.6429 14.1245 18.6429 12.3C18.6429 10.6689 17.9881 9.10464 16.8227 7.95129C15.6573 6.79794 14.0767 6.15 12.4286 6.15C10.7804 6.15 9.19981 6.79794 8.03441 7.95129C6.869 9.10464 6.21429 10.6689 6.21429 12.3C6.21429 14.1245 7.02214 15.7645 8.28571 16.892V19.393C5.8 17.9785 4.14286 15.375 4.14286 12.3C4.14286 10.1252 5.01581 8.03952 6.56969 6.50172C8.12356 4.96393 10.2311 4.1 12.4286 4.1ZM12.4286 0C15.7248 0 18.8861 1.29589 21.2169 3.60259C23.5477 5.90928 24.8571 9.03784 24.8571 12.3C24.8571 15.785 23.3864 18.9215 21.0457 21.1765L18.9743 20.254C20.1646 19.2898 21.1239 18.0762 21.783 16.7008C22.442 15.3253 22.7845 13.8223 22.7857 12.3C22.7857 9.58153 21.6945 6.9744 19.7522 5.05216C17.8098 3.12991 15.1755 2.05 12.4286 2.05C9.68169 2.05 7.04731 3.12991 5.10497 5.05216C3.16262 6.9744 2.07143 9.58153 2.07143 12.3C2.07143 16.5025 4.61929 20.1105 8.28571 21.689V23.903C3.45929 22.2015 0 17.6505 0 12.3C0 9.03784 1.30944 5.90928 3.64024 3.60259C5.97105 1.29589 9.13231 0 12.4286 0Z" fill="#C4C4C4"/>
</svg>
