<svg width="21" height="21" viewBox="0 0 21 21" fill="none" xmlns="http://www.w3.org/2000/svg">
<path d="M4.22333 9.08833C5.90333 12.39 8.61 15.0967 11.9117 16.7767L14.4783 14.21C14.805 13.8833 15.26 13.79 15.6683 13.9183C16.975 14.35 18.375 14.5833 19.8333 14.5833C20.1428 14.5833 20.4395 14.7062 20.6583 14.925C20.8771 15.1438 21 15.4406 21 15.75V19.8333C21 20.1428 20.8771 20.4395 20.6583 20.6583C20.4395 20.8771 20.1428 21 19.8333 21C14.5732 21 9.52852 18.9104 5.80905 15.191C2.08958 11.4715 0 6.42679 0 1.16667C0 0.857247 0.122916 0.560501 0.341709 0.341709C0.560501 0.122916 0.857247 0 1.16667 0H5.25C5.55942 0 5.85616 0.122916 6.07496 0.341709C6.29375 0.560501 6.41667 0.857247 6.41667 1.16667C6.41667 2.625 6.65 4.025 7.08167 5.33167C7.21 5.74 7.11667 6.195 6.79 6.52167L4.22333 9.08833Z" fill="white"/>
</svg>
