<svg width="17" height="23" viewBox="0 0 17 23" fill="none" xmlns="http://www.w3.org/2000/svg">
<path d="M8.5 10.925C7.69488 10.925 6.92273 10.6221 6.35343 10.0829C5.78412 9.54377 5.46429 8.8125 5.46429 8.05C5.46429 7.2875 5.78412 6.55623 6.35343 6.01707C6.92273 5.4779 7.69488 5.175 8.5 5.175C9.30512 5.175 10.0773 5.4779 10.6466 6.01707C11.2159 6.55623 11.5357 7.2875 11.5357 8.05C11.5357 8.42755 11.4572 8.8014 11.3046 9.15022C11.1521 9.49903 10.9285 9.81596 10.6466 10.0829C10.3647 10.3499 10.03 10.5617 9.66172 10.7062C9.29341 10.8506 8.89866 10.925 8.5 10.925ZM8.5 0C6.24566 0 4.08365 0.848122 2.48959 2.35779C0.895533 3.86746 0 5.91501 0 8.05C0 14.0875 8.5 23 8.5 23C8.5 23 17 14.0875 17 8.05C17 5.91501 16.1045 3.86746 14.5104 2.35779C12.9163 0.848122 10.7543 0 8.5 0Z" fill="white"/>
</svg>
