<svg width="45" height="45" viewBox="0 0 45 45" fill="none" xmlns="http://www.w3.org/2000/svg">
<path d="M29.5312 22.5C29.5312 24.3648 28.7905 26.1532 27.4718 27.4718C26.1532 28.7905 24.3648 29.5312 22.5 29.5312C20.6352 29.5312 18.8468 28.7905 17.5282 27.4718C16.2095 26.1532 15.4688 24.3648 15.4688 22.5C15.4688 22.0992 15.5109 21.7078 15.5836 21.3281H13.125V30.6961C13.125 31.3477 13.6523 31.875 14.3039 31.875H30.6984C31.0107 31.8744 31.31 31.7499 31.5305 31.5289C31.7511 31.3079 31.875 31.0084 31.875 30.6961V21.3281H29.4164C29.4891 21.7078 29.5312 22.0992 29.5312 22.5ZM22.5 27.1875C23.1157 27.1873 23.7254 27.0659 24.2942 26.8301C24.863 26.5944 25.3798 26.2489 25.8151 25.8134C26.2503 25.3779 26.5956 24.8609 26.831 24.292C27.0665 23.7231 27.1877 23.1134 27.1875 22.4977C27.1873 21.8819 27.0659 21.2723 26.8301 20.7035C26.5944 20.1347 26.2489 19.6179 25.8134 19.1826C25.3779 18.7473 24.8609 18.4021 24.292 18.1666C23.7231 17.9311 23.1134 17.81 22.4977 17.8102C21.2541 17.8105 20.0617 18.3047 19.1826 19.1843C18.3035 20.0638 17.8098 21.2565 17.8102 22.5C17.8105 23.7435 18.3047 24.936 19.1843 25.8151C20.0638 26.6941 21.2565 27.1878 22.5 27.1875ZM28.125 17.5781H30.9352C31.1219 17.5781 31.3009 17.5041 31.4332 17.3723C31.5654 17.2405 31.64 17.0617 31.6406 16.875V14.0648C31.6406 13.8777 31.5663 13.6983 31.434 13.566C31.3017 13.4337 31.1223 13.3594 30.9352 13.3594H28.125C27.9379 13.3594 27.7585 13.4337 27.6262 13.566C27.4939 13.6983 27.4195 13.8777 27.4195 14.0648V16.875C27.4219 17.2617 27.7383 17.5781 28.125 17.5781ZM22.5 0C16.5326 0 10.8097 2.37053 6.5901 6.5901C2.37053 10.8097 0 16.5326 0 22.5C0 28.4674 2.37053 34.1903 6.5901 38.4099C10.8097 42.6295 16.5326 45 22.5 45C25.4547 45 28.3806 44.418 31.1104 43.2873C33.8402 42.1566 36.3206 40.4992 38.4099 38.4099C40.4992 36.3206 42.1566 33.8402 43.2873 31.1104C44.418 28.3806 45 25.4547 45 22.5C45 19.5453 44.418 16.6194 43.2873 13.8896C42.1566 11.1598 40.4992 8.67941 38.4099 6.5901C36.3206 4.50078 33.8402 2.84344 31.1104 1.71271C28.3806 0.58198 25.4547 0 22.5 0ZM34.2188 31.6148C34.2188 33.0469 33.0469 34.2188 31.6148 34.2188H13.3852C11.9531 34.2188 10.7812 33.0469 10.7812 31.6148V13.3852C10.7812 11.9531 11.9531 10.7812 13.3852 10.7812H31.6148C33.0469 10.7812 34.2188 11.9531 34.2188 13.3852V31.6148Z" fill="white"/>
</svg>
