<svg width="113" height="40" viewBox="0 0 113 40" fill="none" xmlns="http://www.w3.org/2000/svg">
<path d="M11.2723 0.00254777C10.6583 0.504459 10.1553 1.1172 9.82086 1.89682C9.54129 2.62166 9.37406 3.40127 9.37406 4.18089V8.35924V15.3236H26.5146H26.5707C27.855 15.3236 28.9158 15.7694 29.7532 16.772C30.4234 17.5516 30.7579 18.4433 30.7579 19.5019C30.7579 20.7834 30.2549 21.842 29.2503 22.7338C28.469 23.3465 27.5754 23.6815 26.5707 23.6815H26.5146H9.37406V25.3529C9.37406 26.6344 8.8162 27.693 7.81026 28.4726C7.029 29.0293 6.19157 29.3643 5.18563 29.3643C3.73417 29.3643 2.61717 28.7516 1.77974 27.6369C1.33294 26.9682 1.05337 26.1885 0.998474 25.4076V4.18089V4.12484C0.998474 3.12229 1.33294 2.23057 2.00314 1.50573C2.84184 0.504459 3.90267 0.00254777 5.13073 0.00254777H5.1869H11.2723ZM9.37406 30.6459H31.0375C31.1498 30.6459 31.2609 30.6459 31.3719 30.6459C32.4889 30.6459 33.4374 31.0917 34.22 31.9274C35.0012 32.707 35.3931 33.7108 35.3931 34.8242C35.3931 35.9376 35.0025 36.9414 34.1651 37.7771C33.3838 38.5567 32.3779 39.0026 31.206 39.0026C31.1498 39.0026 31.0936 39.0026 30.9826 39.0026H5.4103C5.4103 39.0026 5.29797 39.0026 5.1869 39.0026C4.0699 39.0026 3.06524 38.5567 2.17164 37.7771C1.39038 36.9414 0.999751 35.9389 0.999751 34.8242V34.7121V28.7503C2.11675 29.9758 3.51204 30.6446 5.1869 30.6446H9.37406V30.6459ZM31.1498 0.00254777H31.206H31.2621C32.3791 0.00254777 33.2727 0.392357 33.9978 1.1172C34.9476 1.89682 35.3931 2.95541 35.3931 4.18089C35.3931 5.23949 35.0587 6.18726 34.2761 6.96688C33.4949 7.8586 32.5451 8.30446 31.317 8.35924C31.2609 8.35924 31.206 8.35924 31.0936 8.35924H14.6782C13.394 8.35924 12.3331 7.80255 11.4957 6.79873C10.9379 6.01911 10.6021 5.12739 10.6021 4.17962C10.6021 3.2879 10.8817 2.50828 11.3285 1.78344C12.1097 0.614013 13.2267 0 14.5671 0H31.1498V0.00254777Z" fill="#F7E842"/>
<path d="M44.0473 0.00292969C45.2753 0.00292969 46.3362 0.44879 47.1187 1.39529C47.8451 2.1749 48.1795 3.06662 48.1795 4.18127V25.4641C48.1795 26.6896 47.6766 27.6934 46.6719 28.473C45.8906 29.0857 44.997 29.4195 43.9924 29.4195C42.652 29.4195 41.5912 28.8628 40.7537 27.859C40.1397 27.0794 39.804 26.2437 39.804 25.2959V4.18127V4.12522C39.804 3.12267 40.1384 2.23096 40.8086 1.45134C41.646 0.44879 42.7069 0.00292969 43.9349 0.00292969H44.0473ZM41.4788 30.0896C42.2601 30.4233 43.0975 30.6462 43.9911 30.6462H48.1783H70.0089H70.0651C71.0698 30.6462 71.9634 30.98 72.6897 31.6488C73.6944 32.4284 74.1974 33.487 74.1974 34.7685V34.8806C74.1974 36.1061 73.7506 37.1087 72.8021 37.9443C72.0208 38.6131 71.1272 39.0029 70.0102 39.0029H44.1022C44.046 39.0029 43.9911 39.0029 43.9911 39.0029C42.8741 39.0029 41.8694 38.5571 40.9758 37.7775C40.1946 36.9418 39.804 35.9392 39.804 34.8246V34.7125V28.7507C40.3056 29.3087 40.8648 29.7545 41.4788 30.0896Z" fill="#F7E842"/>
<path d="M88.8804 0.00303605C88.2664 0.504947 87.7634 1.11769 87.429 1.8973C87.1494 2.62214 86.9822 3.40176 86.9822 4.18138V8.35972V15.3241H104.123H104.179C105.463 15.3241 106.524 15.7699 107.361 16.7725C108.032 17.5521 108.366 18.4438 108.366 19.5024C108.366 20.7839 107.863 21.8425 106.858 22.7342C106.077 23.347 105.184 23.682 104.179 23.682H104.123H86.9822V25.3534C86.9822 26.6349 86.4243 27.6935 85.4184 28.4731C84.6371 29.0298 83.7997 29.3648 82.7937 29.3648C81.3423 29.3648 80.2253 28.7521 79.3878 27.6374C78.941 26.9686 78.6615 26.189 78.6066 25.4081V4.18138V4.12533C78.6066 3.12278 78.9423 2.23106 79.6112 1.50622C80.4499 0.504947 81.5108 0.00303605 82.7388 0.00303605H82.795H88.8804ZM86.9822 30.6463H108.646C108.757 30.6463 108.869 30.6463 108.98 30.6463C110.097 30.6463 111.046 31.0922 111.828 31.9279C112.609 32.7075 113 33.7113 113 34.8247C113 35.9381 112.609 36.9419 111.772 37.7776C110.991 38.5572 109.985 39.003 108.813 39.003C108.757 39.003 108.702 39.003 108.589 39.003H83.0184C83.0184 39.003 82.9073 39.003 82.795 39.003C81.678 39.003 80.6733 38.5572 79.7797 37.7776C78.9985 36.9419 78.6078 35.9393 78.6078 34.8247V34.7126V28.7508C79.7248 29.9763 81.1201 30.6451 82.795 30.6451H86.9822V30.6463ZM108.757 0.00303605H108.813H108.869C109.986 0.00303605 110.88 0.392845 111.605 1.11769C112.554 1.8973 113 2.9559 113 4.18138C113 5.23998 112.666 6.18775 111.883 6.96737C111.102 7.85909 110.152 8.30495 108.924 8.35972C108.868 8.35972 108.812 8.35972 108.7 8.35972H92.2863C91.0021 8.35972 89.9412 7.80304 89.1038 6.79921C88.546 6.0196 88.2102 5.12788 88.2102 4.18011C88.2102 3.28839 88.4898 2.50877 88.9366 1.78393C89.7178 0.614501 90.8348 0.000488281 92.1752 0.000488281H108.757V0.00303605Z" fill="#F7E842"/>
</svg>
