<svg width="45" height="45" viewBox="0 0 45 45" fill="none" xmlns="http://www.w3.org/2000/svg">
<path d="M22.5 0C10.0734 0 0 10.0734 0 22.5C0 34.9266 10.0734 45 22.5 45C34.9266 45 45 34.9266 45 22.5C45 10.0734 34.9266 0 22.5 0ZM31.1531 25.3852C31.1531 25.3852 33.143 27.3492 33.6328 28.2609C33.6469 28.2797 33.6539 28.2984 33.6586 28.3078C33.8578 28.643 33.9047 28.9031 33.8063 29.0977C33.6422 29.4211 33.0797 29.5805 32.8875 29.5945H29.3719C29.1281 29.5945 28.6172 29.5312 27.9984 29.1047C27.5227 28.7719 27.0539 28.2258 26.5969 27.6938C25.9148 26.9016 25.3242 26.2172 24.7289 26.2172C24.6533 26.2171 24.5781 26.2289 24.5063 26.2523C24.0563 26.3977 23.4797 27.0398 23.4797 28.7508C23.4797 29.2852 23.0578 29.5922 22.7602 29.5922H21.15C20.6016 29.5922 17.7445 29.4 15.2133 26.7305C12.1148 23.4609 9.32578 16.9031 9.30234 16.8422C9.12656 16.418 9.48984 16.1906 9.88594 16.1906H13.4367C13.9102 16.1906 14.0648 16.4789 14.1727 16.7344C14.2992 17.032 14.7633 18.2156 15.525 19.5469C16.7602 21.7172 17.5172 22.5984 18.1242 22.5984C18.238 22.5971 18.3498 22.5681 18.45 22.5141C19.2422 22.0734 19.0945 19.2492 19.0594 18.6633C19.0594 18.5531 19.057 17.4 18.6516 16.8469C18.3609 16.4461 17.8664 16.2938 17.5664 16.2375C17.6878 16.0699 17.8478 15.9341 18.0328 15.8414C18.5766 15.5695 19.5563 15.5297 20.5289 15.5297H21.0703C22.125 15.5437 22.3969 15.6117 22.7789 15.7078C23.5523 15.893 23.5688 16.3922 23.5008 18.1008C23.4797 18.5859 23.4586 19.1344 23.4586 19.7813C23.4586 19.9219 23.4516 20.0719 23.4516 20.2313C23.4281 21.1008 23.4 22.0875 24.0141 22.493C24.0942 22.5432 24.1867 22.57 24.2813 22.5703C24.4945 22.5703 25.1367 22.5703 26.8758 19.5867C27.4121 18.6264 27.8782 17.6285 28.2703 16.6008C28.3055 16.5398 28.4086 16.3523 28.5305 16.2797C28.6204 16.2338 28.7201 16.2105 28.8211 16.2117H32.9953C33.45 16.2117 33.7617 16.2797 33.8203 16.4555C33.9234 16.7344 33.8016 17.5852 31.8961 20.1656L31.0453 21.2883C29.318 23.5523 29.318 23.6672 31.1531 25.3852Z" fill="white"/>
</svg>
