<svg width="45" height="45" viewBox="0 0 45 45" fill="none" xmlns="http://www.w3.org/2000/svg">
<path d="M26.257 22.1086L20.993 19.6523C20.5336 19.4391 20.1562 19.6781 20.1562 20.1867V24.8133C20.1562 25.3219 20.5336 25.5609 20.993 25.3477L26.2547 22.8914C26.7164 22.6758 26.7164 22.3242 26.257 22.1086ZM22.5 0C10.0734 0 0 10.0734 0 22.5C0 34.9266 10.0734 45 22.5 45C34.9266 45 45 34.9266 45 22.5C45 10.0734 34.9266 0 22.5 0ZM22.5 31.6406C10.9828 31.6406 10.7812 30.6023 10.7812 22.5C10.7812 14.3977 10.9828 13.3594 22.5 13.3594C34.0172 13.3594 34.2188 14.3977 34.2188 22.5C34.2188 30.6023 34.0172 31.6406 22.5 31.6406Z" fill="#F7E842"/>
</svg>
