<svg width="31" height="31" viewBox="0 0 31 31" fill="none" xmlns="http://www.w3.org/2000/svg">
<path fill-rule="evenodd" clip-rule="evenodd" d="M15.5 0C6.9533 0 0 6.9533 0 15.5C0 24.0467 6.9533 31 15.5 31C24.0467 31 31 24.0467 31 15.5C31 6.9533 24.0467 0 15.5 0ZM15.5 2.325C22.7648 2.325 28.675 8.23515 28.675 15.5C28.675 22.7648 22.7648 28.675 15.5 28.675C8.23515 28.675 2.325 22.7648 2.325 15.5C2.325 8.23515 8.23515 2.325 15.5 2.325ZM12.4412 9.29953C11.9871 9.75523 11.9902 10.4915 12.4443 10.9441L17.0199 15.4995L12.4443 20.0565C11.9902 20.5091 11.9871 21.2438 12.4412 21.6995C12.6675 21.9289 12.9667 22.0421 13.2643 22.0421C13.5603 22.0421 13.8579 21.9289 14.0842 21.7026L19.4891 16.3241C19.7076 16.1056 19.8301 15.8095 19.8301 15.4995C19.8301 15.1911 19.7076 14.895 19.4891 14.6765L14.0842 9.29644C13.6301 8.84383 12.8954 8.84383 12.4412 9.29953Z" fill="white"/>
</svg>
