<svg width="29" height="34" viewBox="0 0 29 34" fill="none" xmlns="http://www.w3.org/2000/svg">
<path d="M14.3467 0C19.5356 0 23.7108 4.08313 23.7108 9.12402V11.7167C26.6231 12.6258 28.745 15.2622 28.745 18.411V26.7588C28.745 30.6571 25.5132 33.8177 21.5287 33.8177H7.21805C3.23188 33.8177 0 30.6571 0 26.7588V18.411C0 15.2622 2.12366 12.6258 5.03425 11.7167V9.12402C5.05143 4.08313 9.22659 0 14.3467 0ZM14.3639 19.2495C13.5392 19.2495 12.8691 19.9048 12.8691 20.7114V24.4416C12.8691 25.265 13.5392 25.9203 14.3639 25.9203C15.2058 25.9203 15.8759 25.265 15.8759 24.4416V20.7114C15.8759 19.9048 15.2058 19.2495 14.3639 19.2495ZM14.3811 2.94052C10.8932 2.94052 8.05823 5.69621 8.04105 9.09042V11.3521H20.704V9.12402C20.704 5.71302 17.869 2.94052 14.3811 2.94052Z" fill="#7B7B7B"/>
</svg>
