<svg width="35" height="35" viewBox="0 0 35 35" fill="none" xmlns="http://www.w3.org/2000/svg">
<path d="M17.5 0C27.1775 0 35 7.84 35 17.5C35 27.1775 27.1775 35 17.5 35C7.84 35 0 27.1775 0 17.5C0 7.84 7.84 0 17.5 0ZM16.8875 8.6275C16.17 8.6275 15.575 9.205 15.575 9.94V18.7775C15.575 19.2325 15.82 19.6525 16.2225 19.8975L23.0825 23.9925C23.2925 24.115 23.52 24.185 23.765 24.185C24.2025 24.185 24.64 23.9575 24.885 23.5375C25.2525 22.925 25.06 22.12 24.43 21.735L18.2 18.025V9.94C18.2 9.205 17.605 8.6275 16.8875 8.6275Z" fill="white"/>
</svg>
