<svg width="81" height="70" viewBox="0 0 81 70" fill="none" xmlns="http://www.w3.org/2000/svg">
<path d="M30.7475 0C26.6702 0 22.7598 1.63888 19.8766 4.55612C16.9935 7.47335 15.3738 11.43 15.3738 15.5556C15.3738 19.6811 16.9935 23.6378 19.8766 26.555C22.7598 29.4722 26.6702 31.1111 30.7475 31.1111C34.8249 31.1111 38.7353 29.4722 41.6184 26.555C44.5016 23.6378 46.1213 19.6811 46.1213 15.5556C46.1213 11.43 44.5016 7.47335 41.6184 4.55612C38.7353 1.63888 34.8249 0 30.7475 0ZM30.7475 7.77778C32.7862 7.77778 34.7414 8.59722 36.183 10.0558C37.6246 11.5145 38.4344 13.4928 38.4344 15.5556C38.4344 17.6184 37.6246 19.5967 36.183 21.0553C34.7414 22.5139 32.7862 23.3333 30.7475 23.3333C28.7089 23.3333 26.7537 22.5139 25.3121 21.0553C23.8705 19.5967 23.0607 17.6184 23.0607 15.5556C23.0607 13.4928 23.8705 11.5145 25.3121 10.0558C26.7537 8.59722 28.7089 7.77778 30.7475 7.77778ZM57.6516 31.1111C57.0367 31.1111 56.7292 31.4222 56.7292 32.0444L55.7299 36.9444C54.8844 37.6444 53.6545 38.2667 52.732 38.8889L47.8124 36.9444C47.505 36.9444 46.89 36.9444 46.5825 37.3333L42.8928 44.1778C42.5854 44.4889 42.5854 45.1111 43.2003 45.4222L47.1975 48.6111V52.5L43.2003 55.6889C42.8928 56 42.5854 56.6222 42.8928 56.9333L46.5825 63.7778C46.89 64.1667 47.505 64.1667 47.8124 64.1667L52.732 62.2222C53.6545 62.8444 54.8844 63.4667 55.7299 64.1667L56.7292 69.0667C56.7292 69.6889 57.0367 70 57.6516 70H65.3385C65.646 70 66.261 69.6889 66.261 69.0667L66.8759 64.1667C68.1058 63.4667 69.3357 62.8444 70.2581 62.2222L74.9471 64.1667C75.4852 64.1667 76.1002 64.1667 76.1002 63.7778L80.0974 56.9333C80.4048 56.6222 80.0974 56 79.7899 55.6889L75.7927 52.5V48.6111L79.7899 45.4222C80.0974 45.1111 80.4048 44.4889 80.0974 44.1778L76.1002 37.3333C76.1002 36.9444 75.4852 36.9444 74.9471 36.9444L70.2581 38.8889C69.3357 38.2667 68.1058 37.6444 66.8759 36.9444L66.261 32.0444C66.261 31.4222 65.646 31.1111 65.3385 31.1111H57.6516ZM30.7475 35C20.4856 35 0 40.1722 0 50.5556V62.2222H37.1661C36.0899 59.9278 35.3212 57.4389 34.9369 54.8333H7.30254V50.5556C7.30254 48.0667 19.3325 42.3889 30.7475 42.3889C32.4002 42.3889 34.0913 42.5444 35.744 42.7778C36.5127 40.2889 37.5504 37.9556 38.8956 35.8167C35.8978 35.3111 33.0536 35 30.7475 35ZM61.6488 44.7222C64.7236 44.7222 67.2603 47.2889 67.2603 50.7111C67.2603 53.8222 64.7236 56.3889 61.6488 56.3889C58.2666 56.3889 55.7299 53.8222 55.7299 50.7111C55.7299 47.2889 58.2666 44.7222 61.6488 44.7222Z" fill="#232323"/>
</svg>
