<svg width="78" height="70" viewBox="0 0 78 70" fill="none" xmlns="http://www.w3.org/2000/svg">
<path d="M14.0374 28V70H0V28H14.0374ZM28.0749 70C26.2134 70 24.4281 69.2625 23.1119 67.9497C21.7956 66.637 21.0561 64.8565 21.0561 63V28C21.0561 26.075 21.8282 24.325 23.1267 23.065L46.2182 0L49.9382 3.71C50.8857 4.655 51.4823 5.95 51.4823 7.385L51.377 8.505L48.0431 24.5H70.1872C72.0486 24.5 73.8339 25.2375 75.1501 26.5503C76.4664 27.863 77.2059 29.6435 77.2059 31.5V38.5C77.2059 39.41 77.0304 40.25 76.7146 41.055L66.1163 65.73C65.0635 68.25 62.5719 70 59.6591 70H28.0749ZM28.0749 63H59.7644L70.1872 38.5V31.5H39.3399L43.3055 12.88L28.0749 28.105V63Z" fill="#232323"/>
</svg>
