<svg width="70" height="70" viewBox="0 0 70 70" fill="none" xmlns="http://www.w3.org/2000/svg">
<path d="M26 0C32.8956 0 39.5088 2.73928 44.3848 7.61522C49.2607 12.4912 52 19.1044 52 26C52 32.44 49.64 38.36 45.76 42.92L46.84 44H50L70 64L64 70L44 50V46.84L42.92 45.76C38.2022 49.7871 32.2028 51.9996 26 52C19.1044 52 12.4912 49.2607 7.61522 44.3848C2.73928 39.5088 0 32.8956 0 26C0 19.1044 2.73928 12.4912 7.61522 7.61522C12.4912 2.73928 19.1044 0 26 0ZM26 8C16 8 8 16 8 26C8 36 16 44 26 44C36 44 44 36 44 26C44 16 36 8 26 8Z" fill="#232323"/>
</svg>
