<svg width="97" height="70" viewBox="0 0 97 70" fill="none" xmlns="http://www.w3.org/2000/svg">
<path d="M61.6783 0C71.0258 0 79.9905 3.68749 86.6001 10.2513C93.2098 16.815 96.9231 25.7174 96.9231 35C96.9231 44.2826 93.2098 53.185 86.6001 59.7487C79.9905 66.3125 71.0258 70 61.6783 70C52.3308 70 43.3662 66.3125 36.7565 59.7487C30.1468 53.185 26.4336 44.2826 26.4336 35C26.4336 25.7174 30.1468 16.815 36.7565 10.2513C43.3662 3.68749 52.3308 0 61.6783 0ZM61.6783 8.75C54.6677 8.75 47.9442 11.5156 42.987 16.4384C38.0297 21.3613 35.2448 28.0381 35.2448 35C35.2448 41.9619 38.0297 48.6387 42.987 53.5616C47.9442 58.4844 54.6677 61.25 61.6783 61.25C68.6889 61.25 75.4124 58.4844 80.3697 53.5616C85.3269 48.6387 88.1119 41.9619 88.1119 35C88.1119 28.0381 85.3269 21.3613 80.3697 16.4384C75.4124 11.5156 68.6889 8.75 61.6783 8.75ZM57.2727 17.5H63.8811V34.0375L74.1462 44.2312L69.4762 48.8688L57.2727 36.75V17.5ZM4.40559 61.25C3.23716 61.25 2.11658 60.7891 1.29037 59.9686C0.464159 59.1481 0 58.0353 0 56.875C0 55.7147 0.464159 54.6019 1.29037 53.7814C2.11658 52.9609 3.23716 52.5 4.40559 52.5H21.279C22.6448 55.6063 24.407 58.5375 26.4336 61.25H4.40559ZM8.81119 39.375C7.64275 39.375 6.52217 38.9141 5.69596 38.0936C4.86975 37.2731 4.40559 36.1603 4.40559 35C4.40559 33.8397 4.86975 32.7269 5.69596 31.9064C6.52217 31.0859 7.64275 30.625 8.81119 30.625H17.8427L17.6224 35L17.8427 39.375H8.81119ZM13.2168 17.5C12.0483 17.5 10.9278 17.0391 10.1016 16.2186C9.27535 15.3981 8.81119 14.2853 8.81119 13.125C8.81119 11.9647 9.27535 10.8519 10.1016 10.0314C10.9278 9.21094 12.0483 8.75 13.2168 8.75H26.4336C24.407 11.4625 22.6448 14.3938 21.279 17.5H13.2168Z" fill="#232323"/>
</svg>
