<svg width="69" height="65" viewBox="0 0 69 65" fill="none" xmlns="http://www.w3.org/2000/svg">
<path d="M29.0753 0C45.1394 0 58.1505 6.43529 58.1505 14.3805C58.1505 22.3258 45.1394 28.7611 29.0753 28.7611C13.0112 28.7611 0 22.3258 0 14.3805C0 6.43529 13.0112 0 29.0753 0ZM0 21.5708C0 29.516 13.0112 35.9513 29.0753 35.9513C45.1394 35.9513 58.1505 29.516 58.1505 21.5708V32.6438L54.5161 32.3562C45.103 32.3562 37.071 38.2522 34.0181 46.521L29.0753 46.7367C13.0112 46.7367 0 40.3014 0 32.3562V21.5708ZM0 39.5465C0 47.4917 13.0112 53.927 29.0753 53.927H32.7097C32.7097 57.7019 33.691 61.2611 35.4355 64.3529L29.0753 64.7124C13.0112 64.7124 0 58.2771 0 50.3319V39.5465ZM50.8817 65L40.8871 54.2146L45.103 50.0443L50.8817 55.7246L63.9292 42.854L68.1452 47.9231L50.8817 65Z" fill="#232323"/>
</svg>
