<svg width="66" height="65" viewBox="0 0 66 65" fill="none" xmlns="http://www.w3.org/2000/svg">
<path d="M64.0575 59.4401L59.4427 64.055C58.8338 64.6602 58.0101 65 57.1516 65C56.293 65 55.4693 64.6602 54.8604 64.055L16.2519 25.5115C15.1951 25.8177 14.1022 25.9816 13.0021 25.999C10.9329 25.9975 8.89394 25.5021 7.05477 24.554C5.21559 23.6058 3.62932 22.2323 2.42783 20.5477C1.22635 18.8631 0.444361 16.916 0.146891 14.8683C-0.150578 12.8206 0.0450627 10.7315 0.717548 8.77465L8.97222 17.0293L10.6947 15.3069L15.3095 10.6921L17.0319 8.96964L8.77723 0.714972C10.7341 0.0424864 12.8232 -0.153154 14.8709 0.144315C16.9186 0.441785 18.8657 1.22377 20.5503 2.42526C22.2349 3.62674 23.6084 5.21301 24.5565 7.05219C25.5047 8.89136 26.0001 10.9303 26.0015 12.9995C25.9842 14.0996 25.8202 15.1925 25.5141 16.2494L64.0575 54.8578C64.6628 55.4667 65.0026 56.2904 65.0026 57.149C65.0026 58.0075 64.6628 58.8312 64.0575 59.4401ZM0.945039 54.8578C0.339747 55.4667 0 56.2904 0 57.149C0 58.0075 0.339747 58.8312 0.945039 59.4401L5.55986 64.055C6.16876 64.6602 6.99245 65 7.85102 65C8.70959 65 9.53327 64.6602 10.1422 64.055L27.919 46.3107L18.7218 37.1135L0.945039 54.8578ZM58.5003 0L45.5008 6.49974V12.9995L38.4486 20.0517L44.9483 26.5514L52.0005 19.4992H58.5003L65 6.49974L58.5003 0Z" fill="#232323"/>
</svg>
