<svg width="145" height="30" viewBox="0 0 145 30" fill="none" xmlns="http://www.w3.org/2000/svg">
<path d="M144.42 7.66344V0H116.29C110.417 0 107.771 3.63196 107.336 7.15497V7.26392V0H99.0713V7.66344H107.3H144.42ZM107.3 10.4237L99.035 9.95158V18.7772C99.035 21.5375 97.6575 22.3729 92.8725 22.3729H86.275C82.3237 22.3729 80.6562 21.247 80.6562 18.7772V9.11622L72.2825 8.49879V19.4673H72.1012C71.63 16.2712 70.4338 12.5666 62.4588 12.0218L36.25 10.2785C36.25 14.3099 39.1137 16.707 43.6087 17.1792L61.8787 19.0315C63.3287 19.1404 64.38 19.5763 64.38 20.7748C64.38 22.0823 63.2925 22.2276 61.625 22.2276H35.9237V10.2785L27.55 9.73366V30H61.6613C69.2738 30 71.7025 26.0412 72.065 22.7361H72.2462C73.1888 27.9661 77.7562 30 85.4775 30H93.9962C103.022 30 107.3 27.2397 107.3 20.7748V10.4237ZM133.871 11.9855L107.662 10.4237C107.662 14.4552 110.309 17.1429 114.804 17.5061L133.472 18.9588C134.922 19.0678 135.792 19.431 135.792 20.6295C135.792 21.7554 134.777 22.1913 132.675 22.1913H107.227V30H133.219C141.411 30 145 27.1308 145 20.5932C145 14.7094 141.774 12.4939 133.871 11.9855ZM72.2825 0H80.6562V7.66344H72.2825V0ZM22.9463 9.37046L13.8475 8.46247L0 30H10.1862L22.9463 9.37046ZM70.76 0H45.2037C39.2587 0 36.6488 3.7046 36.0325 7.26392V0H21.8587C19.865 0 18.9225 0.617433 17.98 1.99758L14.065 7.66344H70.76V0Z" fill="#003994"/>
</svg>
