<svg width="69" height="70" viewBox="0 0 69 70" fill="none" xmlns="http://www.w3.org/2000/svg">
<path d="M67.9296 28.6293H34.9772V42.1733H53.802C52.9902 46.5511 50.5277 50.2541 46.8156 52.7349C43.6782 54.8326 39.6743 56.073 34.9681 56.073C25.8567 56.073 18.1498 49.9166 15.3954 41.6443C14.7023 39.5466 14.301 37.3029 14.301 34.9954C14.301 32.688 14.7023 30.4443 15.3954 28.3466C18.159 20.0834 25.8658 13.927 34.9772 13.927C40.1121 13.927 44.7179 15.6964 48.3479 19.1622L58.3805 9.12052C52.3153 3.4658 44.4078 0 34.9772 0C21.3055 0 9.47622 7.84365 3.72117 19.2808C1.34984 24.0052 0 29.3498 0 35.0046C0 40.6593 1.34984 45.9948 3.72117 50.7192C9.47622 62.1563 21.3055 70 34.9772 70C44.4261 70 52.3427 66.8625 58.1251 61.5179C64.7375 55.4254 68.559 46.4508 68.559 35.7889C68.559 33.3081 68.3401 30.9277 67.9296 28.6293Z" fill="#4A86EE"/>
</svg>
