<svg width="80" height="80" viewBox="0 0 80 80" fill="none" xmlns="http://www.w3.org/2000/svg">
<path d="M40 80H38.6725L47.005 57.67H58.3325C60.3375 57.67 62.33 56.0025 62.995 54.3375L72.005 30.0025C73.3325 26.005 71.0025 22.6725 67.005 22.6725H51.3275L31.0025 79C12.995 74.665 0 59 0 40.0025C0 21.67 12.33 6.33 29.335 1.33L21.665 22.67L8.67 57.67H17.0025L27.6675 27.995H33.995L23.33 57.67H31.6625L41.6625 30C42.99 26.0025 40.9975 22.67 36.6625 22.67H29.995L38.3275 0H39.995C62 0 79.995 17.995 79.995 40C79.995 62.005 62 80 39.995 80H40ZM64.335 27.67H57.995L48.9975 52.005H55.3375L64.335 27.67Z" fill="#184C95"/>
</svg>
