<svg width="76" height="50" viewBox="0 0 76 50" fill="none" xmlns="http://www.w3.org/2000/svg">
<path d="M62.379 49.9977C62.1142 49.9958 61.8607 49.8898 61.6734 49.7025C61.4861 49.5152 61.3801 49.2618 61.3783 48.9969V1.00097C61.3801 0.736124 61.4861 0.482649 61.6734 0.29537C61.8607 0.108092 62.1142 0.00206519 62.379 0.000223783H73.9755C74.1089 -0.00257688 74.2415 0.0212046 74.3656 0.0701834C74.4898 0.119162 74.6029 0.192358 74.6984 0.285503C74.794 0.378649 74.87 0.489882 74.9221 0.612718C74.9743 0.735554 75.0014 0.867535 75.002 1.00097V48.9969C75.002 49.5594 74.538 50.0094 73.9755 49.9977H62.379ZM42.9336 49.9977C42.9336 49.9977 42.0055 49.7164 42.0055 48.9969V19.53C42.034 18.6112 41.8765 17.6962 41.5424 16.8398C41.2083 15.9835 40.7045 15.2035 40.0613 14.5468C39.4182 13.8901 38.6489 13.3701 37.7997 13.0182C36.9506 12.6663 36.039 12.4897 35.1198 12.499H13.4409C12.1847 12.499 12.5011 13.4388 12.5011 13.4388V48.9969C12.5011 49.8383 11.5613 49.9977 11.5613 49.9977H1.02653C0.89312 50.0005 0.760491 49.9767 0.636369 49.9277C0.512248 49.8787 0.399118 49.8055 0.303572 49.7124C0.208027 49.6192 0.131978 49.508 0.0798591 49.3852C0.0277398 49.2623 0.000592682 49.1303 0 48.9969V1.00097C0 0.438489 0.464046 -0.0114945 1.02653 0.000223783H41.2227C44.7476 0.0267535 48.1196 1.44292 50.6064 3.94112C53.0932 6.43932 54.4939 9.8178 54.5043 13.3427L54.5277 48.9993C54.528 49.1308 54.5024 49.261 54.4522 49.3826C54.402 49.5041 54.3283 49.6146 54.2353 49.7076C54.1423 49.8006 54.0319 49.8743 53.9103 49.9245C53.7888 49.9746 53.6585 50.0003 53.527 50L42.9336 49.9977ZM21.3766 49.9977C21.1273 49.9977 20.8883 49.8986 20.712 49.7224C20.5358 49.5461 20.4368 49.3071 20.4368 49.0578V20.9339C20.4368 20.4206 20.8633 19.994 21.3766 19.994H33.1558C33.6691 20.0175 34.0582 20.4347 34.0582 20.9339V49.0578C34.0594 49.1806 34.0363 49.3024 33.9903 49.4162C33.9442 49.5301 33.8761 49.6336 33.7898 49.721C33.7035 49.8084 33.6008 49.8778 33.4876 49.9253C33.3744 49.9728 33.2528 49.9974 33.1301 49.9977H21.3766Z" fill="#FF6608"/>
</svg>
