<svg width="145" height="49" viewBox="0 0 145 49" fill="none" xmlns="http://www.w3.org/2000/svg">
<path d="M127.141 25.9248C127.141 28.9456 125.069 31.1629 122.217 31.1629C119.414 31.1629 117.22 28.8671 117.22 25.9248C117.22 22.8435 119.293 20.6806 122.144 20.6806C124.948 20.6806 127.141 22.9825 127.141 25.9248ZM40.7148 20.3665C39.9589 20.3405 39.2078 20.4953 38.5238 20.8179C37.8397 21.1405 37.2425 21.6216 36.7817 22.2212C35.8583 23.5111 35.4845 25.1148 35.7425 26.68L44.6781 22.9704C44.3471 22.195 43.7943 21.5347 43.0891 21.0725C42.3839 20.6102 41.5579 20.3667 40.7148 20.3725V20.3665ZM82.7829 20.6806C79.9312 20.6806 77.8529 22.8435 77.8529 25.9248C77.8529 28.861 80.0521 31.1629 82.8554 31.1629C85.7071 31.1629 87.7794 28.9396 87.7794 25.9248C87.7794 22.9825 85.5862 20.6806 82.7829 20.6806ZM145 0V48.3696H0V0H145ZM30.2688 30.5285H18.6567V11.0442H13.4729V35.229H30.2688V30.5346V30.5285ZM37.1381 29.9606L50.2063 24.5412C49.9727 22.6313 49.197 20.8283 47.9708 19.3454C46.255 17.3517 43.7175 16.2944 40.6242 16.2944C34.9994 16.2944 30.7581 20.439 30.7581 25.9187C30.7581 31.5375 35.0115 35.5431 41.186 35.5431C44.6419 35.5431 48.1823 33.8998 49.8377 31.9846L46.6054 29.5015C44.4485 31.0965 43.2221 31.471 41.2585 31.471C39.4944 31.471 38.1169 30.9273 37.1381 29.9606ZM70.7902 23.6833C70.7902 19.3998 67.7271 16.2944 63.226 16.2944C62.054 16.2992 60.8983 16.5704 59.8464 17.0874C58.7945 17.6045 57.8739 18.3539 57.1542 19.279V16.6085H52.0429V35.2229H57.1542V24.6319C57.1542 22.7227 58.6344 20.6987 61.3713 20.6987C63.4858 20.6987 65.6729 22.1669 65.6729 24.6319V35.2229H70.7902V23.6833ZM92.8242 25.9187C92.8242 20.4571 88.444 16.2944 82.8554 16.2944C77.2185 16.2944 72.8081 20.5235 72.8081 25.9187C72.8081 31.3744 77.1944 35.5371 82.7829 35.5371C88.4137 35.5371 92.8242 31.3079 92.8242 25.9187ZM105.306 35.2229L112.967 16.6085H107.125L102.503 29.29L97.881 16.6025H92.0448L99.7056 35.2169H105.306V35.2229ZM132.186 25.9187C132.186 20.4571 127.805 16.2944 122.217 16.2944C116.586 16.2944 112.176 20.5235 112.176 25.9187C112.176 31.3744 116.556 35.5371 122.144 35.5371C127.775 35.5371 132.186 31.3079 132.186 25.9187Z" fill="#E12319"/>
</svg>
