<svg width="80" height="60" viewBox="0 0 80 60" fill="none" xmlns="http://www.w3.org/2000/svg">
<path d="M12.1867 10.5563C12.1867 10.5563 6.04106 16.4281 5.70503 22.6384V23.7934C5.97634 28.8114 9.76227 31.766 9.76227 31.766C15.8307 37.7025 30.5314 45.1698 33.9788 46.8574C33.9788 46.8574 34.1854 46.962 34.3148 46.8325L34.3795 46.7031V46.5612C24.9558 26.0261 12.1842 10.5588 12.1842 10.5588L12.1867 10.5563ZM32.0223 51.9103C31.9576 51.639 31.6988 51.639 31.6988 51.639L7.20845 52.5077C9.85437 57.2519 14.3397 60.896 19.0193 59.8057C22.2078 58.9769 29.5084 53.8941 31.8929 52.1692C32.0995 51.9999 32.0223 51.8705 32.0223 51.8705V51.9103ZM32.2937 49.3167C21.5333 42.0435 0.699439 30.9346 0.699439 30.9346C0.25453 32.3266 0.0188131 33.777 0 35.2383L0 35.4722C0 39.0242 1.32172 41.5133 1.32172 41.5133C3.98008 47.1262 9.08773 48.8263 9.08773 48.8263C11.4225 49.812 13.7424 49.8493 13.7424 49.8493C14.1431 49.914 28.341 49.8493 32.1244 49.8493C32.2937 49.8493 32.3957 49.6801 32.3957 49.6801V49.4859C32.3957 49.3814 32.2912 49.3167 32.2912 49.3167H32.2937ZM30.0634 0.766645C27.7119 1.36883 25.6151 2.70821 24.0801 4.58858C22.545 6.46895 21.6525 8.79148 21.5333 11.2159V12.5775C21.5912 13.755 21.7697 14.9235 22.0659 16.0647C24.2563 25.6851 34.8873 41.4486 37.1698 44.7666C37.3391 44.9358 37.5058 44.8711 37.5058 44.8711C37.5695 44.8427 37.6225 44.7949 37.6573 44.7345C37.6922 44.6742 37.7071 44.6044 37.7 44.5351C41.2271 9.36402 34.0186 0.00248893 34.0186 0.00248893C32.9558 0.0672057 30.0634 0.766645 30.0634 0.766645ZM57.6128 8.29868C57.6128 8.29868 55.9924 2.32234 49.5233 0.726819C49.5233 0.726819 47.6315 0.258867 45.6328 0C45.6328 0 38.3994 9.3217 41.9116 44.5699C41.9514 44.8039 42.1182 44.8288 42.1182 44.8288C42.3521 44.9333 42.4417 44.7392 42.4417 44.7392C44.8412 41.3167 55.3926 25.6179 57.5456 16.0622C57.5456 16.0622 58.7379 11.4076 57.6104 8.29619L57.6128 8.29868ZM47.9277 51.6763C47.9277 51.6763 47.6938 51.6763 47.629 51.8331C47.629 51.8331 47.5892 52.0671 47.7186 52.1692C50.0385 53.8667 57.1822 58.8076 60.6048 59.8057C60.6048 59.8057 61.1374 59.975 62.031 59.9999H62.484C64.779 59.9352 68.7964 58.7802 72.4405 52.5077L47.8854 51.6788L47.9277 51.6763ZM73.909 23.766C74.377 16.9209 67.4647 10.5812 67.4647 10.5563C67.4647 10.5563 54.6956 26.0236 45.3341 46.4019C45.3341 46.4019 45.2295 46.6608 45.3988 46.83L45.5282 46.8549H45.7348C49.247 45.1051 63.8456 37.6627 69.8866 31.7909C69.8866 31.7909 73.7099 28.7044 73.9065 23.766H73.909ZM78.952 30.8699C78.952 30.8699 58.1181 42.046 47.3577 49.2793C47.3577 49.2793 47.1885 49.4212 47.2532 49.6552C47.2532 49.6552 47.3577 49.8493 47.4872 49.8493C51.3378 49.8493 65.9489 49.8493 66.3123 49.7846C66.3123 49.7846 68.204 49.7199 70.5263 48.8263C70.5263 48.8263 75.6987 47.1661 78.3944 41.2818C78.3944 41.2818 80.8188 36.4729 78.952 30.8724V30.8699Z" fill="#FD0000"/>
</svg>
