<svg width="145" height="35" viewBox="0 0 145 35" fill="none" xmlns="http://www.w3.org/2000/svg">
<path d="M144.656 1.54062C144.142 0.857916 143.629 0.34437 141.061 0.175204C140.378 0.175204 138.324 0 134.729 0C125.304 0 118.803 2.91208 115.547 8.56103C116.405 2.91208 110.925 0 98.9384 0C84.8976 0 75.9922 5.64895 72.3974 17.1221C71.032 21.4056 71.032 24.8312 72.0591 27.5741H68.6334C66.0657 27.7373 62.6401 27.9125 60.4168 27.9125C55.2814 27.9125 52.0189 27.0545 50.8226 25.3448C49.7956 23.8041 49.7956 20.8921 51.167 16.6085C53.3903 9.58811 58.701 6.50686 67.262 6.50686C71.7147 6.50686 75.9922 7.02041 75.9922 7.02041C76.5057 7.02041 76.8501 6.3377 76.8501 5.82416L76.6809 5.31062L76.3366 2.91208C76.1674 1.37145 74.9651 0.513537 72.9109 0.175204C71.032 -4.05125e-06 69.4853 0 67.4312 0H67.262C56.1333 0 48.2549 3.77 43.9774 10.9596C45.5181 3.59479 40.3766 0 28.5652 0C21.8891 0 17.086 0.175208 14.3491 0.513541C12.1258 0.857916 10.7544 1.71583 10.2408 3.25645L9.21374 6.3377C9.04457 6.85124 9.38895 7.19562 10.0717 7.19562C10.5852 7.19562 12.6394 6.85124 16.065 6.67603C19.4255 6.39128 22.7946 6.22001 26.1666 6.16249C32.6735 6.16249 35.5856 7.87832 34.5585 11.1287C34.3833 11.8175 33.8697 12.331 33.0179 12.5002C26.8554 13.5273 21.8891 14.216 18.2883 14.7296C8.01749 16.095 2.02417 19.1762 0.483544 24.3177C-1.74583 31.3381 3.73396 34.7577 16.9169 34.7577C23.4298 34.7577 29.0787 34.4193 33.5314 33.5614C36.0991 33.0479 37.4706 32.5343 37.9841 30.8245L40.3766 22.9462C40.2074 30.8245 45.512 34.7577 56.816 34.7577C61.613 34.7577 66.2349 34.5885 68.4582 34.2441C70.6876 33.9058 71.8839 33.3922 72.3974 31.6764L72.9109 29.2839C75.3095 33.0479 80.6201 34.9329 88.6676 34.9329C97.2286 34.9329 102.195 34.7577 103.56 34.2441C104.055 34.133 104.517 33.9042 104.905 33.5771C105.293 33.2501 105.596 32.8344 105.79 32.3652L105.959 31.8516L106.986 28.5952C107.161 28.0816 106.817 27.7373 106.128 27.7373L100.654 28.0816C97.0534 28.2568 94.1474 28.426 92.0872 28.426C88.154 28.426 85.5863 28.0816 84.0397 27.5681C81.8163 26.7102 80.7893 25.1695 80.9584 22.6018L98.2557 20.3785C105.959 19.3514 111.269 16.9529 113.837 13.1889L107.844 33.217C107.675 33.5614 107.844 33.9058 108.013 34.075C108.188 34.2441 108.527 34.4193 109.215 34.4193H116.405C117.601 34.4193 118.115 33.7306 118.29 33.217L124.621 11.1287C125.479 8.2227 128.047 6.85124 132.838 6.85124C137.128 6.85124 140.209 6.85124 142.263 7.02041H142.432C142.777 7.02041 143.459 6.85124 143.973 5.99332L145 2.91208C145 2.39853 145 1.885 144.656 1.54062ZM29.2479 27.9185C27.0245 28.2629 23.7681 28.432 19.6598 28.432C12.295 28.432 9.21374 26.8914 10.0717 23.9793C10.7544 21.9252 12.6394 20.5537 15.7206 20.2093L32.3352 17.986L29.2479 27.9185ZM105.79 10.0956C105.101 12.325 101.85 13.8656 96.0263 14.7235L82.1607 16.6025L82.4991 15.4062C83.7013 11.6362 85.242 9.24373 87.2961 7.87228C89.3503 6.50082 92.7759 5.81811 97.5669 5.81811C103.911 5.98728 106.648 7.35874 105.784 10.0956H105.79Z" fill="#84B81B"/>
</svg>
