<svg width="80" height="80" viewBox="0 0 80 80" fill="none" xmlns="http://www.w3.org/2000/svg">
<path d="M59.8856 48.671V31.0815H63.948V45.0911H71.0828V48.6585H59.8856V48.671ZM27.2691 37.7063L37.2038 30.0641C38.1413 30.819 39.0663 31.5865 40.0038 32.3565L30.5765 39.4913L32.6215 41.2762L42.0362 33.8814L44.8486 36.1864C41.7237 38.6613 38.5738 41.1212 35.4214 43.5686L37.4538 45.3536L46.8935 37.7113L46.881 31.084H50.9559V45.0936H58.3507V48.661H47.141V42.0462C43.8211 44.5861 40.5137 47.136 37.2063 49.676L27.2716 42.0462C26.7892 44.4686 25.0967 46.5785 22.8968 47.6835C21.9468 48.1785 20.9043 48.491 19.8494 48.6085C19.2369 48.686 18.6244 48.661 18.0144 48.661H11.7246V31.084H18.9769C20.8643 31.109 22.7018 31.7615 24.1842 32.9465C25.6953 34.1643 26.7765 35.8342 27.2691 37.7113V37.7063ZM15.552 34.6464V45.3486H18.7294C19.3964 45.3242 20.0501 45.1556 20.6457 44.8543C21.2412 44.5531 21.7644 44.1264 22.1793 43.6036C22.8792 42.7245 23.3094 41.6615 23.4181 40.5431C23.5268 39.4247 23.3093 38.2988 22.7918 37.3013C22.4624 36.6686 22.0016 36.1135 21.4402 35.6733C20.8789 35.2331 20.2299 34.918 19.5369 34.7489C18.9769 34.6189 18.4044 34.6439 17.8444 34.6439L15.552 34.6464ZM39.4038 0H40.5237C46.8135 0.0774976 52.9833 1.65245 58.5432 4.56986C63.968 7.428 68.6702 11.4847 72.2927 16.432C77.188 23.1006 79.8821 31.1296 80 39.4013V40.5987C79.8723 50.5591 76.0267 60.1121 69.2178 67.3829C65.5429 71.3014 61.1154 74.4384 56.2001 76.6063C51.2849 78.7742 45.9829 79.9284 40.6112 80H39.4013C34.6738 79.9324 29.996 79.0241 25.5867 77.3176C20.0314 75.1496 15.0265 71.7756 10.933 67.4392C6.83949 63.1027 3.75942 57.9118 1.91494 52.2409C0.707097 48.4764 0.0618223 44.5542 0 40.6012V39.4038C0.129996 31.814 2.43492 24.4042 6.63979 18.0894C10.563 12.1564 15.9783 7.36017 22.3418 4.18237C27.641 1.52474 33.4712 0.0960272 39.3988 0.00249992L39.4038 0ZM38.8963 4.10237C31.0783 4.32441 23.5492 7.10579 17.4645 12.0196C12.4822 16.0245 8.6612 21.2886 6.3973 27.2666C3.10558 36.0291 3.33404 45.7256 7.03478 54.3233C9.59468 60.2003 13.6756 65.2884 18.8569 69.0628C23.5616 72.4989 29.0388 74.7258 34.8064 75.5476C39.6638 76.2501 44.6636 75.9651 49.4035 74.6877C55.8838 72.9349 61.7425 69.3994 66.3137 64.483C70.8849 59.5667 73.9854 53.4666 75.2627 46.876C76.2626 41.7086 76.1252 36.3855 74.8602 31.2765C73.3904 25.3822 70.4489 19.9573 66.3109 15.5099C62.173 11.0624 56.974 7.73774 51.2009 5.84732C47.2321 4.55444 43.0681 3.96394 38.8963 4.10237Z" fill="#027CB9"/>
</svg>
