<svg width="68" height="80" viewBox="0 0 68 80" fill="none" xmlns="http://www.w3.org/2000/svg">
<path d="M56.1901 42.2772C56.1517 35.7198 59.1227 30.7777 65.1225 27.1336C61.7668 22.3261 56.6901 19.6819 49.9981 19.1723C43.6618 18.6723 36.7293 22.8645 34.191 22.8645C31.5084 22.8645 25.374 19.3454 20.5473 19.3454C10.5861 19.4992 0 27.2874 0 43.1329C0 47.8154 0.855736 52.6518 2.56721 57.6324C4.85558 64.1898 13.1053 80.2565 21.7107 79.9969C26.2105 79.8911 29.3931 76.8047 35.2486 76.8047C40.9311 76.8047 43.8733 79.9969 48.8923 79.9969C57.5747 79.8719 65.0359 65.2667 67.2089 58.69C55.5651 53.1999 56.1901 42.6137 56.1901 42.2772ZM46.0847 12.9514C50.9596 7.16318 50.5173 1.89416 50.373 0C46.0655 0.24999 41.0849 2.93258 38.2485 6.23053C35.1236 9.76885 33.2872 14.1437 33.6814 19.0762C38.335 19.4319 42.5849 17.0378 46.0847 12.9514Z" fill="#232323"/>
</svg>
