<svg width="70" height="70" viewBox="0 0 70 70" fill="none" xmlns="http://www.w3.org/2000/svg">
<path d="M35.0354 45.5017C37.1124 45.5017 39.1428 44.8858 40.8699 43.7319C42.5969 42.5779 43.9429 40.9378 44.7377 39.0188C45.5326 37.0999 45.7406 34.9883 45.3354 32.9512C44.9301 30.9141 43.9299 29.0428 42.4613 27.5741C40.9926 26.1054 39.1213 25.1052 37.0842 24.7C35.047 24.2948 32.9355 24.5028 31.0166 25.2976C29.0976 26.0925 27.4575 27.4385 26.3035 29.1655C25.1496 30.8925 24.5336 32.9229 24.5336 35C24.5336 37.7852 25.6401 40.4564 27.6095 42.4258C29.579 44.3953 32.2502 45.5017 35.0354 45.5017ZM35.0354 8.38801e-07C31.4733 -0.000779015 27.9319 0.542232 24.5336 1.61027V20.9977C27.6879 18.6319 31.5486 17.4005 35.4902 17.503C39.4317 17.6054 43.2232 19.0357 46.2503 21.5621C49.2775 24.0885 51.3629 27.563 52.1688 31.4226C52.9747 35.2822 52.4538 39.3009 50.6905 42.8275C48.9272 46.3541 46.0248 49.1821 42.4535 50.8532C38.8823 52.5242 34.8514 52.9406 31.014 52.0347C27.1767 51.1288 23.7575 48.9538 21.3107 45.862C18.8638 42.7702 17.5325 38.9429 17.5325 35V4.67036C10.1742 8.90817 4.60745 15.6765 1.86944 23.7143C-0.868579 31.7522 -0.591131 40.5113 2.65009 48.3597C5.89131 56.2082 11.8752 62.6106 19.487 66.3743C27.0987 70.1379 35.8191 71.006 44.0234 68.8168C52.2278 66.6276 59.3564 61.5304 64.0813 54.475C68.8062 47.4196 70.8049 38.887 69.7052 30.4672C68.6055 22.0473 64.4823 14.3144 58.1039 8.70912C51.7254 3.10386 43.5268 0.00858945 35.0354 8.38801e-07Z" fill="#DF002B"/>
</svg>
