<svg width="145" height="25" viewBox="0 0 145 25" fill="none" xmlns="http://www.w3.org/2000/svg">
<path d="M6.99178 23.8999H0V0.376342H12.0656L25.9267 17.9465V0.376342H32.9185V23.8999H21.0887L6.99178 6.04412V23.8999ZM66.313 16.627C66.313 19.8871 65.7236 21.0207 64.7533 22.1043C63.2887 23.7095 61.1395 24.2082 56.9816 24.2082H45.0566C40.8987 24.2082 38.7495 23.714 37.2623 22.1043C36.2919 21.0161 35.7025 19.9098 35.7025 16.627V7.55855C35.7025 4.29845 36.2919 3.16489 37.2623 2.10388C38.7495 0.476093 40.8987 0 45.0566 0H56.9816C61.1123 0 63.2887 0.471558 64.7533 2.10388C65.7236 3.16489 66.313 4.29845 66.313 7.58122V16.627ZM56.6778 18.2548C58.2829 18.2548 58.827 18.1596 59.2306 17.8059C59.5843 17.4749 59.752 17.0759 59.752 15.6794V8.50167C59.752 7.13234 59.5888 6.70612 59.2306 6.39779C58.827 6.04412 58.2875 5.9489 56.6778 5.9489H45.3423C43.7598 5.9489 43.193 6.04412 42.8167 6.39779C42.4403 6.70612 42.2953 7.1278 42.2953 8.50167V15.6794C42.2953 17.0714 42.4585 17.4749 42.8167 17.8059C43.193 18.1596 43.7598 18.2548 45.3423 18.2548H56.6778ZM76.4697 0.380873V23.9044H69.1741V0.380873H76.4697ZM88.7983 0.380873H98.4108L85.4203 11.3854L100.084 23.8999H89.7641L76.4697 11.6439L88.7983 0.403545V0.380873ZM101.431 0.403545H108.726V23.8999H101.431V0.403545ZM136.548 23.8999L134.376 19.8146H120.252L118.126 23.8999H110.073L122.991 0.376342H132.059L145 23.8999H136.544H136.548ZM122.805 14.7136H131.873L127.339 6.18922L122.805 14.7136Z" fill="#004C98"/>
</svg>
