<svg width="145" height="23" viewBox="0 0 145 23" fill="none" xmlns="http://www.w3.org/2000/svg">
<path d="M119.721 0.68873L120.006 16.9509H119.866L115.145 0.68873H107.405V21.1739H112.526L112.24 4.34534H112.381L117.433 21.1739H124.841V0.68873H119.721ZM22.1616 0.68873L18.2921 21.3868H23.8835L26.7381 2.55555H26.8559L29.6425 21.3868H35.1886L31.3643 0.68873H22.1616ZM53.4535 0.68873L50.9025 16.4751H50.762L48.1883 0.68873H39.7378L39.3345 21.3868H44.5272L44.6677 2.76851H44.713L48.1838 21.3868H53.4444L56.9153 2.76851H57.0557L57.1962 21.3868H62.3888L61.8949 0.68873H53.4535ZM9.55611 15.51C9.76907 15.9812 9.69657 16.6881 9.6286 17.0188C9.48814 17.7257 8.98972 18.4099 7.62132 18.4099C6.29824 18.4099 5.54608 17.6532 5.54608 16.5476V14.5403H0V16.1217C0 20.7706 3.6566 22.139 7.55336 22.139C11.2825 22.139 14.3953 20.8431 14.8938 17.4448C15.1792 15.6505 14.9663 14.4724 14.8938 14.0464C13.9241 9.67845 6.02184 8.45505 5.47811 6.02185C5.40499 5.65542 5.40499 5.27815 5.47811 4.91172C5.61857 4.22753 6.08981 3.52067 7.3404 3.52067C8.59098 3.52067 9.27518 4.27737 9.27518 5.38296V6.63355H14.4678V5.19265C14.4678 0.684197 10.3853 0 7.48086 0C3.79707 0 0.756695 1.22793 0.212962 4.55376C0.0255591 5.47613 0.0503501 6.42903 0.28546 7.3404C1.11012 11.6132 8.52301 12.8638 9.56064 15.5055L9.55611 15.51ZM76.9337 15.51C77.1467 15.9812 77.0742 16.6201 77.0062 17.0188C76.8657 17.7257 76.3673 18.4099 74.9989 18.4099C73.6758 18.4099 72.9237 17.6532 72.9237 16.5476V14.5403H67.3776V16.1217C67.3776 20.6981 70.9662 22.0937 74.8584 22.0937C78.5875 22.0937 81.6324 20.8431 82.1263 17.3723C82.4118 15.578 82.1988 14.4678 82.1263 13.9739C81.3017 9.67845 73.4674 8.38255 72.9237 6.02185C72.8505 5.65542 72.8505 5.27815 72.9237 4.91172C73.0415 4.22753 73.5354 3.52067 74.7859 3.52067C75.964 3.52067 76.7207 4.27737 76.7207 5.38296V6.63355H81.8409V5.19265C81.8409 0.684197 77.8308 0 74.9264 0C71.2426 0 68.2702 1.15543 67.7265 4.55376C67.586 5.45092 67.586 6.29824 67.7718 7.3404C68.6236 11.6132 75.8915 12.7913 76.9292 15.5055L76.9337 15.51ZM94.3739 18.274C95.8375 18.274 96.2362 17.3043 96.3812 16.7651C96.4537 16.5521 96.4537 16.1987 96.4537 15.9858V0.693259H101.714V15.5825C101.714 15.9858 101.714 16.7606 101.642 16.9509C101.311 20.8431 98.2435 22.0937 94.4419 22.0937C90.6403 22.0937 87.5999 20.8431 87.242 16.9509C87.242 16.7606 87.1695 15.9812 87.1695 15.5825V0.693259H92.4301V15.9858C92.4301 16.2712 92.4301 16.5521 92.5026 16.7651C92.5026 17.3088 92.9285 18.274 94.3649 18.274H94.3739ZM137.587 18.061C139.123 18.061 139.594 17.0913 139.735 16.5521C139.807 16.3392 139.807 15.9858 139.807 15.7954V12.8004H137.66V9.75548H145V15.3016C145 15.7275 145 15.9858 144.928 16.6926C144.574 20.4942 141.316 21.8128 137.66 21.8128C133.976 21.8128 130.745 20.4897 130.392 16.6926C130.319 15.9858 130.319 15.723 130.319 15.3016V6.57011C130.319 6.23934 130.392 5.53249 130.392 5.20172C130.863 1.30949 133.98 0.0589066 137.66 0.0589066C141.316 0.0589066 144.502 1.30949 144.928 5.20172C145 5.81342 145 6.57011 145 6.57011V7.27696H139.807V6.09888C139.807 6.09888 139.807 5.60498 139.735 5.31952C139.662 4.84829 139.241 3.81067 137.66 3.81067C136.124 3.81067 135.725 4.78032 135.584 5.31952C135.512 5.60498 135.512 5.95841 135.512 6.31184V15.8C135.512 16.0582 135.512 16.3437 135.584 16.5567C135.584 17.1004 136.128 18.0655 137.592 18.0655L137.587 18.061Z" fill="#034EA2"/>
</svg>
